<svg width="200" height="220" viewBox="0 0 50 55" fill="none" xmlns="http://www.w3.org/2000/svg">
  <path
    d="M46.6587 35.3268L46.6179 35.3048C44.1309 34.1058 41.1161 34.774 39.4373 36.9823C37.0456 40.1283 33.4921 42.3255 29.4297 42.9168C29.125 42.9608 28.8175 42.9965 28.5046 43.0213C27.7618 43.0873 27.0026 43.0983 26.2326 43.0488C23.0926 42.8535 20.2003 41.6903 17.8412 39.856C17.4875 39.581 17.1474 39.2923 16.8209 38.9898C16.3256 38.5305 15.8576 38.0382 15.4277 37.5185C13.5258 35.2415 12.2606 32.4173 11.9014 29.329C11.8579 28.9688 11.8279 28.603 11.8116 28.2373C11.8034 28.0833 11.8007 27.9293 11.798 27.7725C11.749 24.885 12.4782 22.1763 13.787 19.8388C14.3394 18.8515 14.9924 17.933 15.7379 17.097C16.4182 16.3325 17.1691 15.634 17.9854 15.018C20.3363 13.2388 23.2096 12.125 26.3305 11.9463C26.6217 11.9298 26.9155 11.9215 27.2094 11.9215C28.8529 11.9215 30.4392 12.1828 31.9248 12.6668C34.9287 13.6403 37.5327 15.5213 39.4183 17.9935C41.0889 20.1825 44.0112 20.9498 46.4846 19.7618L46.6587 19.6765C50.0299 18.054 51.0448 13.7035 48.762 10.7143C44.6724 5.36 38.67 1.56775 31.7888 0.390754C30.1317 0.104755 28.4229 -0.0272455 26.6761 0.00575451C26.5401 0.00850451 26.4013 0.0112545 26.2652 0.0195045C19.1146 0.267004 12.6469 3.336 7.9261 8.154C7.49619 8.5885 7.08261 9.0395 6.68535 9.5015C5.89356 10.4173 5.16435 11.3853 4.50044 12.4C1.72236 16.6405 0.0761901 21.6923 0.00272468 27.107C-0.013601 28.284 0.0435388 29.4473 0.171423 30.5858C0.541471 33.9325 1.50468 37.0978 2.95494 39.9715C3.24881 40.5545 3.56171 41.1265 3.89639 41.6848C4.57935 42.8343 5.34665 43.9288 6.1847 44.96C10.5382 50.306 16.8481 53.9635 24.0069 54.8078C24.6572 54.8875 25.3129 54.9398 25.9741 54.97C26.3169 54.9865 26.6598 54.9948 27.0053 54.9975C27.0734 54.9975 27.1414 54.9975 27.2094 54.9975C36.0035 54.9975 43.8262 50.779 48.8001 44.234C51.0585 41.264 50.0054 36.9355 46.6587 35.324V35.3268Z"
    fill="#86A2C0" />
  <path
    d="M46.6586 19.6763L46.4845 19.7615C44.0112 20.9495 41.0889 20.1823 39.4182 17.9933C36.5993 14.3 32.1778 11.9213 27.2094 11.9213C26.9155 11.9213 26.6216 11.9295 26.3305 11.946C25.8244 9.29227 25.4979 5.81352 25.9904 1.82052C26.0666 1.19902 26.1591 0.599519 26.2652 0.0192687C26.4012 0.0110187 26.54 0.00826869 26.6761 0.00551869C35.666 -0.167731 43.6874 4.06727 48.7619 10.714C51.0448 13.7033 50.0299 18.0538 46.6586 19.6763Z"
    fill="#82A5C6" />
  <path
    d="M26.3306 11.946C20.9459 12.2513 16.2958 15.3533 13.7871 19.8385C11.6294 18.6918 9.1533 17.061 6.72622 14.751C5.89905 13.9618 5.16168 13.1725 4.50049 12.3998C9.21588 5.19201 17.1937 0.332757 26.2653 0.0192566C26.1592 0.599507 26.0667 1.19901 25.9905 1.82051C25.498 5.81351 25.8245 9.29226 26.3306 11.946Z"
    fill="#7497C1" />
  <path
    d="M11.8115 28.237C11.972 31.7515 13.3053 34.9772 15.4276 37.5182C13.4767 38.7557 11.0469 39.9713 8.12733 40.8128C6.63353 41.2418 5.21048 41.5168 3.89627 41.6845C3.56159 41.1263 3.24868 40.5543 2.95482 39.9713C1.00935 36.1185 -0.0599812 31.7405 0.00260046 27.1067C0.0760659 21.692 1.72224 16.6402 4.50032 12.3997C5.1615 13.1725 5.89888 13.9617 6.72604 14.751C9.15312 17.061 11.6292 18.6917 13.7869 19.8385C12.4781 22.176 11.7489 24.8847 11.7979 27.7722C11.8006 27.929 11.8033 28.083 11.8115 28.237Z"
    fill="#6689BC" />
  <path
    d="M7.25415 8.86051C7.2868 8.82476 7.31673 8.79176 7.34938 8.75876C7.31673 8.79451 7.2868 8.82751 7.25415 8.86051Z"
    fill="#6E8CB7" />
  <path
    d="M12.1979 31.0365C12.1108 30.6653 12.0374 30.2858 11.9802 29.9035C12.0374 30.2858 12.1108 30.6625 12.1979 31.0365Z"
    fill="#3D7BBF" />
  <path
    d="M28.5047 43.021C28.5128 45.0753 28.3088 47.3963 27.7074 49.8905C27.2476 51.8073 26.6299 53.5068 25.9742 54.9698C18.0073 54.6123 10.9328 50.7898 6.1848 44.9598C5.34675 43.9285 4.57944 42.834 3.89648 41.6845C5.2107 41.5168 6.63375 41.2418 8.12755 40.8128C11.0471 39.9713 13.4769 38.7557 15.4278 37.5182C15.8577 38.038 16.3257 38.5303 16.821 38.9895C19.3405 41.3215 22.6247 42.823 26.2327 43.0485C27.0027 43.098 27.7619 43.087 28.5047 43.021Z"
    fill="#5373B5" />
  <path
    d="M48.8001 44.2365C43.8262 50.7815 36.0035 55 27.2094 55C27.1414 55 27.0734 55 27.0054 55C26.6598 54.9972 26.317 54.989 25.9741 54.9725C26.6299 53.5095 27.2475 51.81 27.7074 49.8932C28.3087 47.399 28.5128 45.078 28.5046 43.0237C28.8175 42.999 29.125 42.9632 29.4297 42.9192C33.4921 42.328 37.0456 40.1307 39.4373 36.9847C41.1162 34.7765 44.131 34.1082 46.6179 35.3072L46.6587 35.3292C50.0055 36.9407 51.0585 41.2692 48.8001 44.2392V44.2365Z"
    fill="#4766B0" />
</svg>