<?xml version="1.0" standalone="no"?>
<!DOCTYPE svg PUBLIC "-//W3C//DTD SVG 20010904//EN"
 "http://www.w3.org/TR/2001/REC-SVG-20010904/DTD/svg10.dtd">
<svg version="1.0" xmlns="http://www.w3.org/2000/svg"
 width="700.000000pt" height="700.000000pt" viewBox="0 0 700.000000 700.000000"
 preserveAspectRatio="xMidYMid meet">
<metadata>
Created by potrace 1.14, written by Peter Selinger 2001-2017
</metadata>
<g transform="translate(0.000000,700.000000) scale(0.100000,-0.100000)"
fill="#000000" stroke="none">
<path d="M3525 6993 c-27 -2 -126 -15 -220 -28 -516 -74 -997 -261 -1435 -558
-73 -50 -218 -157 -252 -187 -9 -8 -41 -35 -71 -60 -56 -46 -283 -271 -347
-345 -344 -393 -604 -877 -744 -1382 -39 -140 -85 -365 -101 -493 -28 -227
-28 -675 1 -880 43 -314 123 -618 233 -895 48 -118 156 -336 224 -450 229
-384 504 -700 842 -969 477 -379 1054 -628 1645 -711 63 -9 129 -18 145 -21
52 -9 547 -12 630 -4 218 22 255 27 420 61 431 89 837 260 1215 512 81 54 266
194 315 238 17 15 41 37 55 49 182 157 428 435 514 581 118 199 133 459 39
673 -202 461 -784 604 -1172 287 -39 -32 -87 -85 -178 -197 -86 -108 -286
-286 -411 -368 -335 -218 -687 -324 -1077 -324 -316 0 -589 65 -870 205 -103
52 -275 159 -320 200 -11 10 -36 30 -55 44 -111 84 -288 285 -397 450 -593
904 -333 2148 575 2740 249 162 556 275 836 307 122 14 435 7 546 -12 487 -84
899 -330 1222 -728 96 -119 177 -187 283 -237 121 -58 192 -75 320 -74 126 0
201 16 314 69 177 83 306 214 384 390 84 191 79 441 -14 626 -99 198 -410 536
-709 771 -333 262 -811 504 -1190 601 -14 4 -50 14 -80 22 -79 22 -281 61
-385 74 -49 6 -101 14 -115 17 -30 6 -544 11 -615 6z"/>
</g>
</svg>
