<svg width="29" height="30" viewBox="0 0 29 30" fill="none" xmlns="http://www.w3.org/2000/svg">
<path d="M10.9655 20.1354L14.4999 17.9906L18.0342 20.1354L17.0978 16.1177L20.2395 13.399L16.1009 13.0667L14.4999 9.26041L12.8988 13.0667L8.76029 13.399L11.902 16.1177L10.9655 20.1354ZM14.4999 28.6542L10.452 24.6667H4.8332V19.0479L0.845703 15L4.8332 10.9521V5.33333H10.452L14.4999 1.34583L18.5478 5.33333H24.1665V10.9521L28.154 15L24.1665 19.0479V24.6667H18.5478L14.4999 28.6542ZM14.4999 25.2708L17.5207 22.25H21.7499V18.0208L24.7707 15L21.7499 11.9792V7.74999H17.5207L14.4999 4.72916L11.479 7.74999H7.24987V11.9792L4.22904 15L7.24987 18.0208V22.25H11.479L14.4999 25.2708Z" fill="#060A12"/>
</svg>
