<?xml version="1.0" encoding="UTF-8" standalone="no"?>
<!-- Created with Inkscape (http://www.inkscape.org/) -->

<svg
   width="100%"
   height="100%"
   viewBox="0 0 160.57127 160.57127"
   version="1.1"
   id="svg1"
   xml:space="preserve"
   xmlns:xlink="http://www.w3.org/1999/xlink"
   xmlns="http://www.w3.org/2000/svg"
   xmlns:svg="http://www.w3.org/2000/svg"><defs
     id="defs1"><linearGradient
       id="linearGradient23"><stop
         style="stop-color:#edf1ff;stop-opacity:1;"
         offset="0"
         id="stop24" /><stop
         style="stop-color:#a8b8c8;stop-opacity:1;"
         offset="1"
         id="stop25" /></linearGradient><linearGradient
       xlink:href="#linearGradient23"
       id="linearGradient17"
       x1="162.20424"
       y1="37.795757"
       x2="12.029918"
       y2="187.97008"
       gradientUnits="userSpaceOnUse"
       gradientTransform="matrix(0.91264706,0,0,0.91264706,8.7352943,8.7352943)" /></defs><g
     id="layer1"
     transform="translate(-19.714363,-19.714363)"><circle
       style="fill:#dce3f8;fill-opacity:1;stroke-width:4.56324;stroke-linecap:round;stroke-linejoin:round"
       id="path5"
       cx="100"
       cy="100"
       r="80.285637" /><circle
       style="fill:#edf1ff;fill-opacity:1;stroke-width:4.01442;stroke-linecap:round;stroke-linejoin:round"
       id="circle15"
       cx="100"
       cy="100"
       r="70.629814" /><circle
       style="display:inline;opacity:0.5;mix-blend-mode:darken;fill:url(#linearGradient17);fill-opacity:1;stroke-width:4.56324;stroke-linecap:round;stroke-linejoin:round"
       id="circle16"
       cx="100"
       cy="100"
       r="80.285637" /><path
       style="fill:#000000;fill-opacity:0;stroke:#edf1ff;stroke-width:0.942242;stroke-linecap:round;stroke-linejoin:round;stroke-dasharray:none;stroke-dashoffset:0;stroke-opacity:1"
       id="circle17"
       d="m 175.60122,97.299528 c 0.0314,0.896279 0.0473,1.796524 0.0473,2.700472 0,0.90395 -0.0159,1.80419 -0.0473,2.70047 m -0.37999,5.38754 c -0.19152,1.80194 -0.44631,3.58498 -0.7621,5.34686 m -1.14301,5.27855 c -0.44605,1.75284 -0.9533,3.48123 -1.51935,5.18277 m -1.88807,5.06012 c -0.69171,1.66811 -1.44139,3.30611 -2.24652,4.91149 m -2.59246,4.73802 c -0.92174,1.55022 -1.89729,3.06471 -2.92409,4.54087 m -3.23987,4.32123 c -1.13134,1.40218 -2.31173,2.76314 -3.53855,4.08027 m -3.81902,3.81902 c -1.31713,1.22682 -2.67809,2.40721 -4.08027,3.53855 m -4.32123,3.23987 c -1.47616,1.0268 -2.99065,2.00235 -4.54087,2.92409 m -4.73802,2.59246 c -1.60538,0.80513 -3.24338,1.55481 -4.91149,2.24652 m -5.06012,1.88807 c -1.70154,0.56605 -3.42993,1.0733 -5.18277,1.51935 m -5.27855,1.14301 c -1.76188,0.31579 -3.54492,0.57058 -5.34686,0.7621 m -5.38754,0.37999 c -0.89628,0.0314 -1.79652,0.0473 -2.70047,0.0473 -0.903948,0 -1.804193,-0.0159 -2.700472,-0.0473 m -5.387537,-0.37999 c -1.801936,-0.19152 -3.584978,-0.44631 -5.346861,-0.7621 m -5.278552,-1.14301 c -1.752837,-0.44605 -3.481231,-0.9533 -5.182771,-1.51935 m -5.060114,-1.88807 c -1.668114,-0.69171 -3.306117,-1.44139 -4.911495,-2.24652 m -4.738017,-2.59246 c -1.550225,-0.92174 -3.064706,-1.89729 -4.540868,-2.92409 m -4.321238,-3.23987 c -1.402178,-1.13134 -2.763136,-2.31173 -4.080264,-3.53855 m -3.819025,-3.81902 c -1.226821,-1.31713 -2.407206,-2.67809 -3.538547,-4.08027 m -3.239868,-4.32123 c -1.026801,-1.47616 -2.002355,-2.99065 -2.924086,-4.54087 m -2.592467,-4.73802 c -0.805129,-1.60538 -1.554805,-3.24338 -2.246515,-4.91149 m -1.888068,-5.06012 c -0.566051,-1.70154 -1.073304,-3.42993 -1.519352,-5.18277 m -1.143014,-5.27855 c -0.315791,-1.76188 -0.57058,-3.54492 -0.762102,-5.34686 m -0.379987,-5.38754 c -0.03145,-0.89628 -0.0473,-1.79652 -0.0473,-2.70047 0,-0.903948 0.01585,-1.804193 0.0473,-2.700472 m 0.379987,-5.387537 c 0.191522,-1.801936 0.446311,-3.584978 0.762102,-5.346861 m 1.143014,-5.278552 c 0.446048,-1.752837 0.953302,-3.481231 1.519352,-5.182771 m 1.888068,-5.060114 c 0.69171,-1.668114 1.441386,-3.306117 2.246515,-4.911495 m 2.592467,-4.738017 c 0.921731,-1.550225 1.897285,-3.064706 2.924087,-4.540868 m 3.239867,-4.321238 c 1.131341,-1.402178 2.311726,-2.763136 3.538548,-4.080264 m 3.819024,-3.819025 c 1.317129,-1.226821 2.678086,-2.407206 4.080264,-3.538547 m 4.321238,-3.239868 c 1.476162,-1.026801 2.990643,-2.002355 4.540868,-2.924086 m 4.738017,-2.592467 c 1.605379,-0.805129 3.243381,-1.554805 4.911495,-2.246515 m 5.060114,-1.888068 c 1.701541,-0.566051 3.429934,-1.073304 5.182771,-1.519352 m 5.278552,-1.143014 c 1.761883,-0.315791 3.544925,-0.57058 5.346861,-0.762102 m 5.387537,-0.379987 c 0.896279,-0.03145 1.796524,-0.0473 2.700472,-0.0473 0.90395,0 1.80419,0.01585 2.70047,0.0473 m 5.38754,0.379987 c 1.80194,0.191522 3.58498,0.446311 5.34686,0.762102 m 5.27855,1.143014 c 1.75284,0.446048 3.48123,0.953302 5.18277,1.519352 m 5.06012,1.888068 c 1.66811,0.69171 3.30611,1.441386 4.91149,2.246515 m 4.73802,2.592467 c 1.55022,0.921731 3.06471,1.897285 4.54087,2.924087 m 4.32123,3.239867 c 1.40218,1.131341 2.76314,2.311726 4.08027,3.538548 m 3.81902,3.819024 c 1.22682,1.317129 2.40721,2.678086 3.53855,4.080264 m 3.23987,4.321238 c 1.0268,1.476162 2.00235,2.990643 2.92409,4.540868 m 2.59246,4.738017 c 0.80513,1.605379 1.55481,3.243381 2.24652,4.911495 m 1.88807,5.060114 c 0.56605,1.701541 1.0733,3.429934 1.51935,5.182771 m 1.14301,5.278552 c 0.31579,1.761883 0.57058,3.544925 0.7621,5.346861 m 0.37999,5.387537 c 0.0314,0.896279 0.0473,1.796524 0.0473,2.700472" /><path
       style="opacity:0.077;mix-blend-mode:lighten;fill:#000000;fill-opacity:0;stroke:#ffffff;stroke-width:3.81081;stroke-linecap:round;stroke-linejoin:round;stroke-opacity:1"
       d="M 59.911464,42.913445 140.08854,152.62903"
       id="path17" /><path
       d="m 91.871768,145.7153 h -6.210922 v -0.86588 l 3.281242,-3.64583 q 0.729165,-0.82682 1.002602,-1.34114 0.279947,-0.52083 0.279947,-1.07421 0,-0.74219 -0.449218,-1.21745 -0.449217,-0.47526 -1.197913,-0.47526 -0.898436,0 -1.399736,0.51432 -0.494791,0.50781 -0.494791,1.41927 h -1.204424 q 0,-1.30859 0.839842,-2.11588 0.846352,-0.80729 2.259108,-0.80729 1.321612,0 2.089838,0.69661 0.768227,0.69011 0.768227,1.84245 0,1.39973 -1.783849,3.33332 l -2.539056,2.7539 h 4.759102 z m 7.220038,-4.04296 q 0,2.11588 -0.72266,3.14453 -0.722653,1.02864 -2.259107,1.02864 -1.516924,0 -2.246088,-1.0026 -0.729165,-1.00911 -0.755207,-3.00781 v -1.60807 q 0,-2.08983 0.722655,-3.10546 0.722654,-1.01562 2.265619,-1.01562 1.529944,0 2.252598,0.98307 0.72266,0.97656 0.74219,3.02083 z m -1.20443,-1.64713 q 0,-1.52994 -0.429684,-2.22656 -0.429687,-0.70312 -1.360674,-0.70312 -0.924477,0 -1.347653,0.69661 -0.423176,0.69662 -0.436197,2.14193 v 1.92707 q 0,1.53646 0.442708,2.27213 0.449217,0.72917 1.354163,0.72917 0.891925,0 1.321611,-0.6901 0.436196,-0.69011 0.455726,-2.17448 z m 8.958314,5.69009 h -6.21092 v -0.86588 l 3.28124,-3.64583 q 0.72917,-0.82682 1.0026,-1.34114 0.27995,-0.52083 0.27995,-1.07421 0,-0.74219 -0.44922,-1.21745 -0.44921,-0.47526 -1.19791,-0.47526 -0.89843,0 -1.39974,0.51432 -0.49479,0.50781 -0.49479,1.41927 h -1.20442 q 0,-1.30859 0.83984,-2.11588 0.84635,-0.80729 2.25911,-0.80729 1.32161,0 2.08984,0.69661 0.76823,0.69011 0.76823,1.84245 0,1.39973 -1.78385,3.33332 l -2.53906,2.7539 h 4.7591 z m 6.36066,-3.18358 h 1.3151 v 0.98307 h -1.3151 v 2.20051 h -1.21093 v -2.20051 h -4.3164 v -0.70964 l 4.24478,-6.56899 h 1.28255 z m -4.16014,0 h 2.94921 v -4.64843 l -0.14323,0.26042 z"
       id="text15"
       style="font-size:13.3333px;font-family:Roboto;-inkscape-font-specification:'Roboto, Normal';text-align:center;text-anchor:middle;stroke-width:5;stroke-linecap:round;stroke-linejoin:round"
       aria-label="2024" /><g
       id="g13"
       data-name="Layer 2"
       transform="matrix(0.29926642,0,0,0.29926642,72.503877,46.356202)"><path
         class="cls-1"
         d="m 171.48,128.46 -0.15,-0.08 c -9.14,-4.36 -20.22,-1.93 -26.39,6.1 -8.79,11.44 -21.85,19.43 -36.78,21.58 -1.12,0.16 -2.25,0.29 -3.4,0.38 -2.73,0.24 -5.52,0.28 -8.35,0.1 -11.54,-0.71 -22.17,-4.94 -30.84,-11.61 -1.3,-1 -2.55,-2.05 -3.75,-3.15 -1.82,-1.67 -3.54,-3.46 -5.12,-5.35 -6.99,-8.28 -11.64,-18.55 -12.96,-29.78 -0.16,-1.31 -0.27,-2.64 -0.33,-3.97 -0.03,-0.56 -0.04,-1.12 -0.05,-1.69 -0.18,-10.5 2.5,-20.35 7.31,-28.85 2.03,-3.59 4.43,-6.93 7.17,-9.97 2.5,-2.78 5.26,-5.32 8.26,-7.56 8.64,-6.47 19.2,-10.52 30.67,-11.17 1.07,-0.06 2.15,-0.09 3.23,-0.09 6.04,0 11.87,0.95 17.33,2.71 11.04,3.54 20.61,10.38 27.54,19.37 6.14,7.96 16.88,10.75 25.97,6.43 l 0.64,-0.31 C 183.87,65.65 187.6,49.83 179.21,38.96 164.18,19.49 142.12,5.7 116.83,1.42 110.74,0.38 104.46,-0.1 98.04,0.02 c -0.5,0.01 -1.01,0.02 -1.51,0.05 -26.28,0.9 -50.05,12.06 -67.4,29.58 -1.58,1.58 -3.1,3.22 -4.56,4.9 -2.91,3.33 -5.59,6.85 -8.03,10.54 C 6.33,60.51 0.28,78.88 0.01,98.57 c -0.06,4.28 0.15,8.51 0.62,12.65 1.36,12.17 4.9,23.68 10.23,34.13 1.08,2.12 2.23,4.2 3.46,6.23 2.51,4.18 5.33,8.16 8.41,11.91 16,19.44 39.19,32.74 65.5,35.81 2.39,0.29 4.8,0.48 7.23,0.59 1.26,0.06 2.52,0.09 3.79,0.1 0.25,0 0.5,0 0.75,0 32.32,0 61.07,-15.34 79.35,-39.14 8.3,-10.8 4.43,-26.54 -7.87,-32.4 z"
         id="path6"
         style="fill:#86a2c0;stroke-width:0px" /><path
         class="cls-3"
         d="m 171.48,71.55 -0.64,0.31 c -9.09,4.32 -19.83,1.53 -25.97,-6.43 C 134.51,52 118.26,43.35 100,43.35 c -1.08,0 -2.16,0.03 -3.23,0.09 -1.86,-9.65 -3.06,-22.3 -1.25,-36.82 0.28,-2.26 0.62,-4.44 1.01,-6.55 0.5,-0.03 1.01,-0.04 1.51,-0.05 33.04,-0.63 62.52,14.77 81.17,38.94 8.39,10.87 4.66,26.69 -7.73,32.59 z"
         id="path7"
         style="fill:#82a5c6;stroke-width:0px" /><path
         class="cls-5"
         d="M 96.77,43.44 C 76.98,44.55 59.89,55.83 50.67,72.14 42.74,67.97 33.64,62.04 24.72,53.64 21.68,50.77 18.97,47.9 16.54,45.09 33.87,18.88 63.19,1.21 96.53,0.07 96.14,2.18 95.8,4.36 95.52,6.62 93.71,21.14 94.91,33.79 96.77,43.44 Z"
         id="path10"
         style="fill:#7497c1;stroke-width:0px" /><path
         class="cls-7"
         d="m 43.41,102.68 c 0.59,12.78 5.49,24.51 13.29,33.75 -7.17,4.5 -16.1,8.92 -26.83,11.98 -5.49,1.56 -10.72,2.56 -15.55,3.17 -1.23,-2.03 -2.38,-4.11 -3.46,-6.23 C 3.71,131.34 -0.22,115.42 0.01,98.57 0.28,78.88 6.33,60.51 16.54,45.09 c 2.43,2.81 5.14,5.68 8.18,8.55 8.92,8.4 18.02,14.33 25.95,18.5 -4.81,8.5 -7.49,18.35 -7.31,28.85 0.01,0.57 0.02,1.13 0.05,1.69 z"
         id="path11"
         style="fill:#6689bc;stroke-width:0px" /><path
         class="cls-8"
         d="m 104.76,156.44 c 0.03,7.47 -0.72,15.91 -2.93,24.98 -1.69,6.97 -3.96,13.15 -6.37,18.47 -29.28,-1.3 -55.28,-15.2 -72.73,-36.4 -3.08,-3.75 -5.9,-7.73 -8.41,-11.91 4.83,-0.61 10.06,-1.61 15.55,-3.17 10.73,-3.06 19.66,-7.48 26.83,-11.98 1.58,1.89 3.3,3.68 5.12,5.35 9.26,8.48 21.33,13.94 34.59,14.76 2.83,0.18 5.62,0.14 8.35,-0.1 z"
         id="path12"
         style="fill:#5373b5;stroke-width:0px" /><path
         class="cls-4"
         d="M 179.35,160.86 C 161.07,184.66 132.32,200 100,200 c -0.25,0 -0.5,0 -0.75,0 -1.27,-0.01 -2.53,-0.04 -3.79,-0.1 2.41,-5.32 4.68,-11.5 6.37,-18.47 2.21,-9.07 2.96,-17.51 2.93,-24.98 1.15,-0.09 2.28,-0.22 3.4,-0.38 14.93,-2.15 27.99,-10.14 36.78,-21.58 6.17,-8.03 17.25,-10.46 26.39,-6.1 l 0.15,0.08 c 12.3,5.86 16.17,21.6 7.87,32.4 z"
         id="path13"
         style="fill:#4766b0;stroke-width:0px" /></g><path
       d="m 57.885413,124.20925 q -0.143881,1.98894 -1.472657,3.13151 -1.320312,1.14258 -3.486979,1.14258 -2.369792,0 -3.732422,-1.59114 -1.354167,-1.59961 -1.354167,-4.38412 v -0.75325 q 0,-1.77735 0.626302,-3.13151 0.626302,-1.35417 1.785808,-2.07357 1.167968,-0.72787 2.708333,-0.72787 2.132813,0 3.436198,1.14258 1.303386,1.14258 1.506511,3.20768 h -2.539063 q -0.0931,-1.19336 -0.66862,-1.72656 -0.567057,-0.54166 -1.735026,-0.54166 -1.269531,0 -1.904297,0.91406 -0.626302,0.9056 -0.643229,2.81836 v 0.93099 q 0,1.99739 0.600911,2.91992 0.609375,0.92252 1.912761,0.92252 1.176432,0 1.751953,-0.5332 0.583985,-0.54167 0.66862,-1.66732 z m 4.087891,4.10482 h -2.454428 v -13 h 2.454428 z m 7.320963,0 q -0.169271,-0.33008 -0.245443,-0.82096 -0.888671,0.99023 -2.310547,0.99023 -1.345703,0 -2.234375,-0.77864 -0.880208,-0.77865 -0.880208,-1.96355 0,-1.45572 1.07487,-2.23437 1.083333,-0.77865 3.123047,-0.78711 h 1.125651 v -0.52474 q 0,-0.63476 -0.330078,-1.01562 -0.321615,-0.38086 -1.024089,-0.38086 -0.617838,0 -0.973307,0.29622 -0.347005,0.29622 -0.347005,0.8125 h -2.445964 q 0,-0.79557 0.490885,-1.47266 0.490886,-0.67708 1.388021,-1.05794 0.897136,-0.38932 2.014323,-0.38932 1.692709,0 2.682943,0.85482 0.998698,0.84635 0.998698,2.38671 v 3.96941 q 0.0085,1.30338 0.363932,1.972 v 0.14388 z m -2.022786,-1.70117 q 0.541666,0 0.998698,-0.23698 0.457031,-0.24544 0.677083,-0.65169 v -1.57422 h -0.914063 q -1.836588,0 -1.955078,1.26953 l -0.0085,0.14388 q 0,0.45703 0.321614,0.75326 0.321615,0.29622 0.880209,0.29622 z m 10.96875,-0.82943 q 0,-0.44857 -0.448568,-0.70247 -0.440104,-0.26237 -1.421875,-0.4655 -3.266927,-0.68554 -3.266927,-2.77604 0,-1.21875 1.007161,-2.03125 1.015625,-0.82096 2.649089,-0.82096 1.743489,0 2.784505,0.82096 1.049479,0.82097 1.049479,2.13281 h -2.445963 q 0,-0.52474 -0.338542,-0.86328 -0.338542,-0.347 -1.057943,-0.347 -0.617838,0 -0.95638,0.27929 -0.338542,0.2793 -0.338542,0.71094 0,0.40625 0.38086,0.66016 0.389323,0.24544 1.303385,0.43164 0.914063,0.17773 1.540365,0.40625 1.938151,0.71094 1.938151,2.46289 0,1.2526 -1.07487,2.03125 -1.07487,0.77018 -2.776042,0.77018 -1.151041,0 -2.048177,-0.40625 -0.888672,-0.41471 -1.396484,-1.12565 -0.507813,-0.7194 -0.507813,-1.54883 h 2.319011 q 0.03385,0.6517 0.482422,0.9987 0.448567,0.34701 1.201823,0.34701 0.702474,0 1.057942,-0.26237 0.363933,-0.27084 0.363933,-0.70248 z m 8.912111,0 q 0,-0.44857 -0.448568,-0.70247 -0.440104,-0.26237 -1.421875,-0.4655 -3.266927,-0.68554 -3.266927,-2.77604 0,-1.21875 1.007161,-2.03125 1.015626,-0.82096 2.649089,-0.82096 1.74349,0 2.784505,0.82096 1.04948,0.82097 1.04948,2.13281 h -2.445964 q 0,-0.52474 -0.338542,-0.86328 -0.338541,-0.347 -1.057942,-0.347 -0.617839,0 -0.956381,0.27929 -0.338541,0.2793 -0.338541,0.71094 0,0.40625 0.380859,0.66016 0.389323,0.24544 1.303386,0.43164 0.914062,0.17773 1.540364,0.40625 1.938151,0.71094 1.938151,2.46289 0,1.2526 -1.07487,2.03125 -1.074869,0.77018 -2.776041,0.77018 -1.151042,0 -2.048177,-0.40625 -0.888672,-0.41471 -1.396485,-1.12565 -0.507812,-0.7194 -0.507812,-1.54883 h 2.31901 q 0.03385,0.6517 0.482422,0.9987 0.448568,0.34701 1.201823,0.34701 0.702474,0 1.057943,-0.26237 0.363932,-0.27084 0.363932,-0.70248 z m 6.813151,2.5306 H 91.42643 v -12.32292 h 2.539063 z m 4.443358,-9.15755 0.0762,1.05794 q 0.98177,-1.22721 2.632159,-1.22721 1.45573,0 2.16667,0.85482 0.71094,0.85481 0.72787,2.55599 v 5.91601 h -2.44597 v -5.85677 q 0,-0.77865 -0.33854,-1.12565 -0.33854,-0.35547 -1.12565,-0.35547 -1.032549,0 -1.548829,0.88021 v 6.45768 h -2.445962 v -9.15755 z m 12.416009,6.62695 q 0,-0.44857 -0.44856,-0.70247 -0.44011,-0.26237 -1.42188,-0.4655 -3.26693,-0.68554 -3.26693,-2.77604 0,-1.21875 1.00717,-2.03125 1.01562,-0.82096 2.64908,-0.82096 1.74349,0 2.78451,0.82096 1.04948,0.82097 1.04948,2.13281 h -2.44596 q 0,-0.52474 -0.33855,-0.86328 -0.33854,-0.347 -1.05794,-0.347 -0.61784,0 -0.95638,0.27929 -0.33854,0.2793 -0.33854,0.71094 0,0.40625 0.38086,0.66016 0.38932,0.24544 1.30338,0.43164 0.91407,0.17773 1.54037,0.40625 1.93815,0.71094 1.93815,2.46289 0,1.2526 -1.07487,2.03125 -1.07487,0.77018 -2.77604,0.77018 -1.15104,0 -2.04818,-0.40625 -0.88867,-0.41471 -1.39648,-1.12565 -0.50782,-0.7194 -0.50782,-1.54883 h 2.31901 q 0.0339,0.6517 0.48243,0.9987 0.44856,0.34701 1.20182,0.34701 0.70247,0 1.05794,-0.26237 0.36393,-0.27084 0.36393,-0.70248 z m 6.53386,2.5306 h -2.45443 v -9.15755 h 2.45443 z m -2.59831,-11.52734 q 0,-0.55013 0.36393,-0.9056 0.3724,-0.35547 1.00716,-0.35547 0.62631,0 0.9987,0.35547 0.3724,0.35547 0.3724,0.9056 0,0.55859 -0.38086,0.91406 -0.3724,0.35547 -0.99024,0.35547 -0.61783,0 -0.99869,-0.35547 -0.3724,-0.35547 -0.3724,-0.91406 z m 4.25716,6.88086 q 0,-2.10742 0.9987,-3.39388 1.00716,-1.28646 2.70833,-1.28646 1.50651,0 2.34441,1.03255 l 0.10156,-0.86328 h 2.21745 v 8.85286 q 0,1.20183 -0.55013,2.0905 -0.54167,0.88867 -1.53191,1.35417 -0.99023,0.46549 -2.31901,0.46549 -1.00716,0 -1.96354,-0.40625 -0.95638,-0.39779 -1.44726,-1.03255 l 1.08333,-1.48958 q 0.91406,1.02408 2.21745,1.02408 0.97331,0 1.51497,-0.52474 0.54167,-0.51627 0.54167,-1.47265 v -0.49089 q -0.84636,0.95638 -2.22591,0.95638 -1.65039,0 -2.67448,-1.28646 -1.01563,-1.29492 -1.01563,-3.42773 z m 2.44597,0.17773 q 0,1.24414 0.49935,1.95508 0.49934,0.70247 1.37109,0.70247 1.11719,0 1.59961,-0.83789 v -3.85091 q -0.49089,-0.83789 -1.58268,-0.83789 -0.88021,0 -1.38802,0.7194 -0.49935,0.7194 -0.49935,2.14974 z m 10.1901,-3.6901 q 0.97331,-1.16797 2.44597,-1.16797 2.97916,0 3.02148,3.46159 v 5.86523 h -2.44596 v -5.79752 q 0,-0.78711 -0.33854,-1.15951 -0.33855,-0.38086 -1.12566,-0.38086 -1.07487,0 -1.55729,0.82943 v 6.50846 h -2.44596 v -13 h 2.44596 z m 10.24089,-3.25 v 2.2513 h 1.56575 v 1.79427 h -1.56575 v 4.57031 q 0,0.50782 0.19466,0.72787 0.19466,0.22005 0.74479,0.22005 0.40625,0 0.7194,-0.0593 v 1.85352 q -0.7194,0.22005 -1.48112,0.22005 -2.57291,0 -2.6237,-2.5983 v -4.93425 h -1.33723 v -1.79427 h 1.33723 v -2.2513 z m 7.88802,8.87825 q 0,-0.44857 -0.44857,-0.70247 -0.4401,-0.26237 -1.42187,-0.4655 -3.26693,-0.68554 -3.26693,-2.77604 0,-1.21875 1.00716,-2.03125 1.01563,-0.82096 2.64909,-0.82096 1.74349,0 2.78451,0.82096 1.04948,0.82097 1.04948,2.13281 h -2.44597 q 0,-0.52474 -0.33854,-0.86328 -0.33854,-0.347 -1.05794,-0.347 -0.61784,0 -0.95638,0.27929 -0.33854,0.2793 -0.33854,0.71094 0,0.40625 0.38086,0.66016 0.38932,0.24544 1.30338,0.43164 0.91406,0.17773 1.54037,0.40625 1.93815,0.71094 1.93815,2.46289 0,1.2526 -1.07487,2.03125 -1.07487,0.77018 -2.77604,0.77018 -1.15105,0 -2.04818,-0.40625 -0.88867,-0.41471 -1.39649,-1.12565 -0.50781,-0.7194 -0.50781,-1.54883 h 2.31901 q 0.0339,0.6517 0.48242,0.9987 0.44857,0.34701 1.20183,0.34701 0.70247,0 1.05794,-0.26237 0.36393,-0.27084 0.36393,-0.70248 z"
       id="text13"
       style="font-weight:bold;font-size:17.3333px;font-family:Roboto;-inkscape-font-specification:'Roboto Bold';text-align:center;text-anchor:middle;fill:#2c63f1;stroke-width:5;stroke-linecap:round;stroke-linejoin:round"
       aria-label="ClassInsights" /><path
       style="fill:#000000;fill-opacity:0;stroke:#edf1ff;stroke-width:0.942242;stroke-linecap:round;stroke-linejoin:round;stroke-dasharray:none;stroke-dashoffset:0;stroke-opacity:1"
       id="path25"
       d="m 175.60122,97.299528 c 0.0314,0.896279 0.0473,1.796524 0.0473,2.700472 0,0.90395 -0.0159,1.80419 -0.0473,2.70047 m -0.37999,5.38754 c -0.19152,1.80194 -0.44631,3.58498 -0.7621,5.34686 m -1.14301,5.27855 c -0.44605,1.75284 -0.9533,3.48123 -1.51935,5.18277 m -1.88807,5.06012 c -0.69171,1.66811 -1.44139,3.30611 -2.24652,4.91149 m -2.59246,4.73802 c -0.92174,1.55022 -1.89729,3.06471 -2.92409,4.54087 m -3.23987,4.32123 c -1.13134,1.40218 -2.31173,2.76314 -3.53855,4.08027 m -3.81902,3.81902 c -1.31713,1.22682 -2.67809,2.40721 -4.08027,3.53855 m -4.32123,3.23987 c -1.47616,1.0268 -2.99065,2.00235 -4.54087,2.92409 m -4.73802,2.59246 c -1.60538,0.80513 -3.24338,1.55481 -4.91149,2.24652 m -5.06012,1.88807 c -1.70154,0.56605 -3.42993,1.0733 -5.18277,1.51935 m -5.27855,1.14301 c -1.76188,0.31579 -3.54492,0.57058 -5.34686,0.7621 m -5.38754,0.37999 c -0.89628,0.0314 -1.79652,0.0473 -2.70047,0.0473 -0.903948,0 -1.804193,-0.0159 -2.700472,-0.0473 m -5.387537,-0.37999 c -1.801936,-0.19152 -3.584978,-0.44631 -5.346861,-0.7621 m -5.278552,-1.14301 c -1.752837,-0.44605 -3.481231,-0.9533 -5.182771,-1.51935 m -5.060114,-1.88807 c -1.668114,-0.69171 -3.306117,-1.44139 -4.911495,-2.24652 m -4.738017,-2.59246 c -1.550225,-0.92174 -3.064706,-1.89729 -4.540868,-2.92409 m -4.321238,-3.23987 c -1.402178,-1.13134 -2.763136,-2.31173 -4.080264,-3.53855 m -3.819025,-3.81902 c -1.226821,-1.31713 -2.407206,-2.67809 -3.538547,-4.08027 m -3.239868,-4.32123 c -1.026801,-1.47616 -2.002355,-2.99065 -2.924086,-4.54087 m -2.592467,-4.73802 c -0.805129,-1.60538 -1.554805,-3.24338 -2.246515,-4.91149 m -1.888068,-5.06012 c -0.566051,-1.70154 -1.073304,-3.42993 -1.519352,-5.18277 m -1.143014,-5.27855 c -0.315791,-1.76188 -0.57058,-3.54492 -0.762102,-5.34686 m -0.379987,-5.38754 c -0.03145,-0.89628 -0.0473,-1.79652 -0.0473,-2.70047 0,-0.903948 0.01585,-1.804193 0.0473,-2.700472 m 0.379987,-5.387537 c 0.191522,-1.801936 0.446311,-3.584978 0.762102,-5.346861 m 1.143014,-5.278552 c 0.446048,-1.752837 0.953302,-3.481231 1.519352,-5.182771 m 1.888068,-5.060114 c 0.69171,-1.668114 1.441386,-3.306117 2.246515,-4.911495 m 2.592467,-4.738017 c 0.921731,-1.550225 1.897285,-3.064706 2.924087,-4.540868 m 3.239867,-4.321238 c 1.131341,-1.402178 2.311726,-2.763136 3.538548,-4.080264 m 3.819024,-3.819025 c 1.317129,-1.226821 2.678086,-2.407206 4.080264,-3.538547 m 4.321238,-3.239868 c 1.476162,-1.026801 2.990643,-2.002355 4.540868,-2.924086 m 4.738017,-2.592467 c 1.605379,-0.805129 3.243381,-1.554805 4.911495,-2.246515 m 5.060114,-1.888068 c 1.701541,-0.566051 3.429934,-1.073304 5.182771,-1.519352 m 5.278552,-1.143014 c 1.761883,-0.315791 3.544925,-0.57058 5.346861,-0.762102 m 5.387537,-0.379987 c 0.896279,-0.03145 1.796524,-0.0473 2.700472,-0.0473 0.90395,0 1.80419,0.01585 2.70047,0.0473 m 5.38754,0.379987 c 1.80194,0.191522 3.58498,0.446311 5.34686,0.762102 m 5.27855,1.143014 c 1.75284,0.446048 3.48123,0.953302 5.18277,1.519352 m 5.06012,1.888068 c 1.66811,0.69171 3.30611,1.441386 4.91149,2.246515 m 4.73802,2.592467 c 1.55022,0.921731 3.06471,1.897285 4.54087,2.924087 m 4.32123,3.239867 c 1.40218,1.131341 2.76314,2.311726 4.08027,3.538548 m 3.81902,3.819024 c 1.22682,1.317129 2.40721,2.678086 3.53855,4.080264 m 3.23987,4.321238 c 1.0268,1.476162 2.00235,2.990643 2.92409,4.540868 m 2.59246,4.738017 c 0.80513,1.605379 1.55481,3.243381 2.24652,4.911495 m 1.88807,5.060114 c 0.56605,1.701541 1.0733,3.429934 1.51935,5.182771 m 1.14301,5.278552 c 0.31579,1.761883 0.57058,3.544925 0.7621,5.346861 m 0.37999,5.387537 c 0.0314,0.896279 0.0473,1.796524 0.0473,2.700472" /></g></svg>
