<?xml version="1.0" encoding="UTF-8" standalone="no"?>
<!-- Created with Inkscape (http://www.inkscape.org/) -->

<svg
   width="100%"
   height="100%"
   viewBox="0 0 835.04785 283.58218"
   version="1.1"
   id="svg1"
   xml:space="preserve"
   xmlns:xlink="http://www.w3.org/1999/xlink"
   xmlns="http://www.w3.org/2000/svg"
   xmlns:svg="http://www.w3.org/2000/svg"><defs
     id="defs1"><linearGradient
       id="linearGradient191"><stop
         style="stop-color:#dedddd;stop-opacity:1;"
         offset="0"
         id="stop191" /><stop
         style="stop-color:#fdfdfd;stop-opacity:0.89999998;"
         offset="1"
         id="stop192" /></linearGradient><linearGradient
       id="linearGradient187"><stop
         style="stop-color:#ebebeb;stop-opacity:1;"
         offset="0"
         id="stop187" /><stop
         style="stop-color:#f5f3f2;stop-opacity:1;"
         offset="1"
         id="stop188" /></linearGradient><linearGradient
       xlink:href="#linearGradient191"
       id="linearGradient11"
       gradientUnits="userSpaceOnUse"
       x1="1286.0835"
       y1="375.642"
       x2="1464.1388"
       y2="553.69733" /><linearGradient
       xlink:href="#linearGradient187"
       id="linearGradient12"
       gradientUnits="userSpaceOnUse"
       x1="1215.1575"
       y1="201.3036"
       x2="1266.1372"
       y2="345.36771" /></defs><g
     id="layer1"
     transform="translate(-94.994743,-335.60019)"><g
       id="wire"
       transform="translate(-48.937917,1.477652)"><path
         style="color:#000000;fill:#dce3f8;stroke-linecap:round;stroke-linejoin:round;-inkscape-stroke:none"
         d="m 394.51537,501.67999 c -1.38071,0 -2.5,1.11929 -2.5,2.5 0,1.38071 1.11929,2.5 2.5,2.5 1.38071,0 2.5,-1.11929 2.5,-2.5 0,-1.38071 -1.11929,-2.5 -2.5,-2.5 z"
         id="path263" /><path
         style="color:#000000;fill:#dce3f8;stroke-linecap:round;stroke-linejoin:round;-inkscape-stroke:none"
         d="m 409.39428,501.67999 c -1.38071,0 -2.5,1.11929 -2.5,2.5 0,1.38071 1.11929,2.5 2.5,2.5 1.38071,0 2.5,-1.11929 2.5,-2.5 0,-1.38071 -1.11929,-2.5 -2.5,-2.5 z"
         id="path264" /><path
         style="color:#000000;fill:#dce3f8;stroke-linecap:round;stroke-linejoin:round;-inkscape-stroke:none"
         d="m 424.27514,501.67999 c -1.38071,0 -2.5,1.11929 -2.5,2.5 0,1.38071 1.11929,2.5 2.5,2.5 1.38071,0 2.5,-1.11929 2.5,-2.5 0,-1.38071 -1.11929,-2.5 -2.5,-2.5 z"
         id="path265" /><path
         style="color:#000000;fill:#dce3f8;stroke-linecap:round;stroke-linejoin:round;-inkscape-stroke:none"
         d="m 439.15404,501.67999 c -1.38071,0 -2.5,1.11929 -2.5,2.5 0,1.38071 1.11929,2.5 2.5,2.5 1.38071,0 2.5,-1.11929 2.5,-2.5 0,-1.38071 -1.11929,-2.5 -2.5,-2.5 z"
         id="path266" /><path
         style="color:#000000;fill:#dce3f8;stroke-linecap:round;stroke-linejoin:round;-inkscape-stroke:none"
         d="m 454.0349,501.67999 c -1.38071,0 -2.5,1.11929 -2.5,2.5 0,1.38071 1.11929,2.5 2.5,2.5 1.38065,-1.4e-4 2.49986,-1.11935 2.5,-2.5 0,-1.38071 -1.11929,-2.5 -2.5,-2.5 z"
         id="path267" /><path
         style="color:#000000;fill:#dce3f8;stroke-linecap:round;stroke-linejoin:round;-inkscape-stroke:none"
         d="m 454.0349,486.60186 c -1.38071,0 -2.5,1.11929 -2.5,2.5 0,1.38071 1.11929,2.5 2.5,2.5 1.38071,0 2.5,-1.11929 2.5,-2.5 0,-1.38071 -1.11929,-2.5 -2.5,-2.5 z"
         id="path256" /><path
         style="color:#000000;fill:#dce3f8;stroke-linecap:round;stroke-linejoin:round;-inkscape-stroke:none"
         d="m 454.0349,471.52374 c -1.38071,0 -2.5,1.11929 -2.5,2.5 v 0.002 c 0,1.38071 1.11929,2.5 2.5,2.5 1.38071,0 2.5,-1.11929 2.5,-2.5 v -0.002 c 0,-1.38071 -1.11929,-2.5 -2.5,-2.5 z"
         id="path254" /><path
         style="color:#000000;fill:#dce3f8;stroke-linecap:round;stroke-linejoin:round;-inkscape-stroke:none"
         d="m 454.0349,456.44757 c -1.38071,0 -2.5,1.11929 -2.5,2.5 0,1.38071 1.11929,2.5 2.5,2.5 1.38071,0 2.5,-1.11929 2.5,-2.5 0,-1.38071 -1.11929,-2.5 -2.5,-2.5 z"
         id="path252" /><path
         style="color:#000000;fill:#dce3f8;stroke-linecap:round;stroke-linejoin:round;-inkscape-stroke:none"
         d="m 454.0349,441.36944 c -1.38071,0 -2.5,1.11929 -2.5,2.5 0,1.38071 1.11929,2.5 2.5,2.5 1.38071,0 2.5,-1.11929 2.5,-2.5 0,-1.38071 -1.11929,-2.5 -2.5,-2.5 z"
         id="path250" /><path
         style="color:#000000;fill:#dce3f8;stroke-linecap:round;stroke-linejoin:round;-inkscape-stroke:none"
         d="m 454.0349,426.29132 c -1.38071,0 -2.5,1.11929 -2.5,2.5 0,1.38071 1.11929,2.5 2.5,2.5 1.38071,0 2.5,-1.11929 2.5,-2.5 0,-1.38071 -1.11929,-2.5 -2.5,-2.5 z"
         id="path248" /><path
         style="color:#000000;fill:#dce3f8;stroke-linecap:round;stroke-linejoin:round;-inkscape-stroke:none"
         d="m 454.0349,411.21514 c -1.38071,0 -2.5,1.11929 -2.5,2.5 0,1.38071 1.11929,2.5 2.5,2.5 1.38071,0 2.5,-1.11929 2.5,-2.5 0,-1.38071 -1.11929,-2.5 -2.5,-2.5 z"
         id="path245" /><path
         style="color:#000000;fill:#dce3f8;stroke-linecap:round;stroke-linejoin:round;-inkscape-stroke:none"
         d="m 454.0349,396.13702 c -1.38065,1.4e-4 -2.49986,1.11935 -2.5,2.5 0,1.38071 1.11929,2.5 2.5,2.5 0.663,-1e-4 1.29882,-0.26356 1.76758,-0.73242 0.46886,-0.46876 0.73232,-1.10458 0.73242,-1.76758 0,-1.38071 -1.11929,-2.5 -2.5,-2.5 z"
         id="path237" /><path
         style="color:#000000;fill:#dce3f8;stroke-linecap:round;stroke-linejoin:round;-inkscape-stroke:none"
         d="m 468.64428,396.13702 c -1.38071,0 -2.5,1.11929 -2.5,2.5 0,1.38071 1.11929,2.5 2.5,2.5 1.38071,0 2.5,-1.11929 2.5,-2.5 0,-1.38071 -1.11929,-2.5 -2.5,-2.5 z"
         id="path238" /><path
         style="color:#000000;fill:#dce3f8;stroke-linecap:round;stroke-linejoin:round;-inkscape-stroke:none"
         d="m 483.2517,396.13702 c -1.38071,0 -2.5,1.11929 -2.5,2.5 0,1.38071 1.11929,2.5 2.5,2.5 1.38071,0 2.5,-1.11929 2.5,-2.5 0,-1.38071 -1.11929,-2.5 -2.5,-2.5 z"
         id="path239" /><path
         style="color:#000000;fill:#dce3f8;stroke-linecap:round;stroke-linejoin:round;-inkscape-stroke:none"
         d="m 639.483,355.91436 c -1.3807,0 -2.5,1.11929 -2.5,2.5 0,1.38071 1.1193,2.5 2.5,2.5 1.3807,0 2.5,-1.11929 2.5,-2.5 0,-1.38071 -1.1193,-2.5 -2.5,-2.5 z"
         id="path7" /><path
         style="color:#000000;fill:#dce3f8;stroke-linecap:round;stroke-linejoin:round;-inkscape-stroke:none"
         d="m 653.2643,355.91436 c -1.3807,0 -2.5,1.11929 -2.5,2.5 0,1.38071 1.1193,2.5 2.5,2.5 1.3807,0 2.5,-1.11929 2.5,-2.5 0,-1.38071 -1.1193,-2.5 -2.5,-2.5 z"
         id="path230" /><path
         style="color:#000000;fill:#dce3f8;stroke-linecap:round;stroke-linejoin:round;-inkscape-stroke:none"
         d="m 667.0456,355.91436 c -1.3807,0 -2.5,1.11929 -2.5,2.5 0,1.38071 1.1193,2.5 2.5,2.5 1.3807,0 2.5,-1.11929 2.5,-2.5 0,-1.38071 -1.1193,-2.5 -2.5,-2.5 z"
         id="path231" /><path
         style="color:#000000;fill:#dce3f8;stroke-linecap:round;stroke-linejoin:round;-inkscape-stroke:none"
         d="m 680.8288,355.91436 c -1.3807,0 -2.5,1.11929 -2.5,2.5 -4e-4,0.66368 0.2631,1.30028 0.7324,1.76953 0.4691,0.46815 1.1049,0.73089 1.7676,0.73047 1.3807,0 2.5,-1.11929 2.5,-2.5 -10e-5,-1.38065 -1.1193,-2.49986 -2.5,-2.5 z"
         id="path232" /><path
         style="color:#000000;fill:#dce3f8;stroke-linecap:round;stroke-linejoin:round;-inkscape-stroke:none"
         d="m 680.8288,369.86749 c -1.3807,0 -2.5,1.11929 -2.5,2.5 0,1.38071 1.1193,2.5 2.5,2.5 1.3807,0 2.5,-1.11929 2.5,-2.5 0,-1.38071 -1.1193,-2.5 -2.5,-2.5 z"
         id="path234" /><path
         style="color:#000000;fill:#dce3f8;stroke-linecap:round;stroke-linejoin:round;-inkscape-stroke:none"
         d="m 680.8288,383.82061 c -1.3807,0 -2.5,1.11929 -2.5,2.5 0,1.38071 1.1193,2.5 2.5,2.5 1.3807,0 2.5,-1.11929 2.5,-2.5 0,-1.38071 -1.1193,-2.5 -2.5,-2.5 z"
         id="path236" /><path
         style="color:#000000;fill:#dce3f8;stroke-linecap:round;stroke-linejoin:round;-inkscape-stroke:none"
         d="m 680.8288,397.77374 c -1.3807,0 -2.5,1.11929 -2.5,2.5 0,1.38071 1.1193,2.5 2.5,2.5 1.3807,0 2.5,-1.11929 2.5,-2.5 0,-1.38071 -1.1193,-2.5 -2.5,-2.5 z"
         id="path244" /><path
         style="color:#000000;fill:#dce3f8;stroke-linecap:round;stroke-linejoin:round;-inkscape-stroke:none"
         d="m 680.8288,411.72686 c -1.3807,0 -2.5,1.11929 -2.5,2.5 0,1.38071 1.1193,2.5 2.5,2.5 1.3807,0 2.5,-1.11929 2.5,-2.5 0,-1.38071 -1.1193,-2.5 -2.5,-2.5 z"
         id="path246" /><path
         style="color:#000000;fill:#dce3f8;stroke-linecap:round;stroke-linejoin:round;-inkscape-stroke:none"
         d="m 680.8288,425.67999 c -1.3807,0 -2.5,1.11929 -2.5,2.5 0,1.38071 1.1193,2.5 2.5,2.5 1.3807,0 2.5,-1.11929 2.5,-2.5 0,-1.38071 -1.1193,-2.5 -2.5,-2.5 z"
         id="path247" /><path
         style="color:#000000;fill:#dce3f8;stroke-linecap:round;stroke-linejoin:round;-inkscape-stroke:none"
         d="m 680.8288,439.63311 c -1.3807,0 -2.5,1.11929 -2.5,2.5 0,1.38071 1.1193,2.5 2.5,2.5 1.3807,0 2.5,-1.11929 2.5,-2.5 0,-1.38071 -1.1193,-2.5 -2.5,-2.5 z"
         id="path249" /><path
         style="color:#000000;fill:#dce3f8;stroke-linecap:round;stroke-linejoin:round;-inkscape-stroke:none"
         d="m 680.8288,453.58624 c -1.3807,0 -2.5,1.11929 -2.5,2.5 0,1.38071 1.1193,2.5 2.5,2.5 1.3807,0 2.5,-1.11929 2.5,-2.5 0,-1.38071 -1.1193,-2.5 -2.5,-2.5 z"
         id="path251" /><path
         style="color:#000000;fill:#dce3f8;stroke-linecap:round;stroke-linejoin:round;-inkscape-stroke:none"
         d="m 680.8288,467.53936 c -1.3807,0 -2.5,1.11929 -2.5,2.5 0,1.38071 1.1193,2.5 2.5,2.5 1.3807,0 2.5,-1.11929 2.5,-2.5 0,-1.38071 -1.1193,-2.5 -2.5,-2.5 z"
         id="path253" /><path
         style="color:#000000;fill:#dce3f8;stroke-linecap:round;stroke-linejoin:round;-inkscape-stroke:none"
         d="m 680.8288,481.49249 c -1.3807,0 -2.5,1.11929 -2.5,2.5 0,1.38071 1.1193,2.5 2.5,2.5 1.3807,0 2.5,-1.11929 2.5,-2.5 0,-1.38071 -1.1193,-2.5 -2.5,-2.5 z"
         id="path255" /><path
         style="color:#000000;fill:#dce3f8;stroke-linecap:round;stroke-linejoin:round;-inkscape-stroke:none"
         d="m 680.8288,495.44561 c -1.3807,0 -2.5,1.11929 -2.5,2.5 0,1.38071 1.1193,2.5 2.5,2.5 1.3807,0 2.5,-1.11929 2.5,-2.5 0,-1.38071 -1.1193,-2.5 -2.5,-2.5 z"
         id="path257" /><path
         style="color:#000000;fill:#dce3f8;stroke-linecap:round;stroke-linejoin:round;-inkscape-stroke:none"
         d="m 680.8288,509.39874 c -1.3807,0 -2.5,1.11929 -2.5,2.5 10e-5,1.38065 1.1193,2.49986 2.5,2.5 1.3807,0 2.5,-1.11929 2.5,-2.5 -3e-4,-0.32849 -0.065,-0.65369 -0.1914,-0.95703 -0.1252,-0.30376 -0.3091,-0.57985 -0.5411,-0.8125 -0.2321,-0.23176 -0.5075,-0.41559 -0.8105,-0.54102 -0.3035,-0.12538 -0.6287,-0.18976 -0.957,-0.18945 z"
         id="path268" /><path
         style="color:#000000;fill:#dce3f8;stroke-linecap:round;stroke-linejoin:round;-inkscape-stroke:none"
         d="m 694.7038,509.39874 c -1.3807,0 -2.5,1.11929 -2.5,2.5 0,1.38071 1.1193,2.5 2.5,2.5 1.3807,0 2.5,-1.11929 2.5,-2.5 0,-1.38071 -1.1193,-2.5 -2.5,-2.5 z"
         id="path269" /><path
         style="color:#000000;fill:#dce3f8;stroke-linecap:round;stroke-linejoin:round;-inkscape-stroke:none"
         d="m 708.5788,509.39874 c -1.3807,0 -2.5,1.11929 -2.5,2.5 0,1.38071 1.1193,2.5 2.5,2.5 1.3807,0 2.5,-1.11929 2.5,-2.5 0,-1.38071 -1.1193,-2.5 -2.5,-2.5 z"
         id="path270" /><path
         style="color:#000000;fill:#dce3f8;stroke-linecap:round;stroke-linejoin:round;-inkscape-stroke:none"
         d="m 722.4538,509.39874 c -1.3807,0 -2.5,1.11929 -2.5,2.5 0,1.38071 1.1193,2.5 2.5,2.5 1.3807,0 2.5,-1.11929 2.5,-2.5 0,-1.38071 -1.1193,-2.5 -2.5,-2.5 z"
         id="path271" /><path
         style="color:#000000;fill:#dce3f8;stroke-linecap:round;stroke-linejoin:round;-inkscape-stroke:none"
         d="m 736.3288,509.39874 c -1.3807,0 -2.5,1.11929 -2.5,2.5 0,1.38071 1.1193,2.5 2.5,2.5 1.3807,0 2.5,-1.11929 2.5,-2.5 0,-1.38071 -1.1193,-2.5 -2.5,-2.5 z"
         id="path272" /><path
         style="color:#000000;fill:#dce3f8;stroke-linecap:round;stroke-linejoin:round;-inkscape-stroke:none"
         d="m 750.2038,509.39874 c -1.3807,0 -2.5,1.11929 -2.5,2.5 0,1.38071 1.1193,2.5 2.5,2.5 1.3807,0 2.5,-1.11929 2.5,-2.5 0,-1.38071 -1.1193,-2.5 -2.5,-2.5 z"
         id="path273" /><path
         style="color:#000000;fill:#dce3f8;stroke-linecap:round;stroke-linejoin:round;-inkscape-stroke:none"
         d="m 764.0788,509.39874 c -1.3807,0 -2.5,1.11929 -2.5,2.5 0,1.38071 1.1193,2.5 2.5,2.5 1.3807,0 2.5,-1.11929 2.5,-2.5 0,-1.38071 -1.1193,-2.5 -2.5,-2.5 z"
         id="path274" /><path
         style="color:#000000;fill:#dce3f8;stroke-linecap:round;stroke-linejoin:round;-inkscape-stroke:none"
         d="m 777.9538,509.39874 c -1.3807,0 -2.5,1.11929 -2.5,2.5 0,1.38071 1.1193,2.5 2.5,2.5 1.3807,0 2.5,-1.11929 2.5,-2.5 0,-1.38071 -1.1193,-2.5 -2.5,-2.5 z"
         id="path275" /><path
         style="color:#000000;fill:#dce3f8;stroke-linecap:round;stroke-linejoin:round;-inkscape-stroke:none"
         d="m 791.8288,509.39874 c -1.3807,0 -2.5,1.11929 -2.5,2.5 0,1.38071 1.1193,2.5 2.5,2.5 1.3807,0 2.5,-1.11929 2.5,-2.5 0,-1.38071 -1.1193,-2.5 -2.5,-2.5 z"
         id="path276" /><path
         style="color:#000000;fill:#dce3f8;stroke-linecap:round;stroke-linejoin:round;-inkscape-stroke:none"
         d="m 805.7038,509.39874 c -1.3807,0 -2.5,1.11929 -2.5,2.5 0,1.38071 1.1193,2.5 2.5,2.5 1.3807,0 2.5,-1.11929 2.5,-2.5 0,-1.38071 -1.1193,-2.5 -2.5,-2.5 z"
         id="path277" /><path
         style="color:#000000;fill:#dce3f8;stroke-linecap:round;stroke-linejoin:round;-inkscape-stroke:none"
         d="m 819.5788,509.39874 c -1.3807,0 -2.5,1.11929 -2.5,2.5 0,1.38071 1.1193,2.5 2.5,2.5 1.3807,0 2.5,-1.11929 2.5,-2.5 0,-1.38071 -1.1193,-2.5 -2.5,-2.5 z"
         id="path15" /></g><g
       id="g83"
       transform="translate(15.23715,2.506082)"
       style="display:inline"><g
         id="g82"
         transform="matrix(0.67355377,0,0,0.67355377,-133.05,94.460389)"><rect
           style="fill:#edf1ff;fill-opacity:1;stroke:none;stroke-width:5.68839;stroke-linecap:round;stroke-linejoin:round;stroke-dasharray:none;stroke-dashoffset:0;stroke-opacity:1"
           id="rect48"
           width="204.30762"
           height="373.15833"
           x="833.67578"
           y="354.29053"
           ry="8.6311684" /><g
           id="g63"
           transform="translate(319.95426,153.04693)"><rect
             style="fill:#dce3f8;fill-opacity:1;stroke:none;stroke-width:4.70408;stroke-linecap:round;stroke-linejoin:round;stroke-dasharray:none;stroke-dashoffset:0;stroke-opacity:1"
             id="rect49"
             width="174.30762"
             height="45"
             x="528.7215"
             y="216.24361"
             ry="5" /><rect
             style="fill:#edf1ff;fill-opacity:1;stroke:none;stroke-width:3.38711;stroke-linecap:round;stroke-linejoin:round;stroke-dasharray:none;stroke-dashoffset:0;stroke-opacity:1"
             id="rect50"
             width="15"
             height="15"
             x="533.7215"
             y="241.24361"
             ry="0" /><ellipse
             style="fill:#3a61e8;fill-opacity:1;stroke:none;stroke-width:3.40094;stroke-linecap:round;stroke-linejoin:round;stroke-dasharray:none;stroke-dashoffset:0;stroke-opacity:1"
             id="ellipse50"
             cx="690.49713"
             cy="228.74361"
             rx="4.7756624"
             ry="4.9936676" /><rect
             style="fill:#edf1ff;fill-opacity:1;stroke:none;stroke-width:3.38711;stroke-linecap:round;stroke-linejoin:round;stroke-dasharray:none;stroke-dashoffset:0;stroke-opacity:1"
             id="rect51"
             width="15"
             height="15"
             x="533.7215"
             y="221.24361"
             ry="0" /><rect
             style="fill:#edf1ff;fill-opacity:1;stroke:none;stroke-width:3.38711;stroke-linecap:round;stroke-linejoin:round;stroke-dasharray:none;stroke-dashoffset:0;stroke-opacity:1"
             id="rect52"
             width="15"
             height="15"
             x="553.7215"
             y="221.24361"
             ry="0" /><rect
             style="fill:#edf1ff;fill-opacity:1;stroke:none;stroke-width:3.38711;stroke-linecap:round;stroke-linejoin:round;stroke-dasharray:none;stroke-dashoffset:0;stroke-opacity:1"
             id="rect53"
             width="15"
             height="15"
             x="553.7215"
             y="241.24361"
             ry="0" /><rect
             style="fill:#edf1ff;fill-opacity:1;stroke:none;stroke-width:3.38711;stroke-linecap:round;stroke-linejoin:round;stroke-dasharray:none;stroke-dashoffset:0;stroke-opacity:1"
             id="rect54"
             width="15"
             height="15"
             x="573.7215"
             y="221.24361"
             ry="0" /><rect
             style="fill:#edf1ff;fill-opacity:1;stroke:none;stroke-width:3.38711;stroke-linecap:round;stroke-linejoin:round;stroke-dasharray:none;stroke-dashoffset:0;stroke-opacity:1"
             id="rect55"
             width="15"
             height="15"
             x="593.7215"
             y="221.24361"
             ry="0" /><rect
             style="fill:#edf1ff;fill-opacity:1;stroke:none;stroke-width:3.38711;stroke-linecap:round;stroke-linejoin:round;stroke-dasharray:none;stroke-dashoffset:0;stroke-opacity:1"
             id="rect56"
             width="15"
             height="15"
             x="613.7215"
             y="221.24361"
             ry="0" /><rect
             style="fill:#edf1ff;fill-opacity:1;stroke:none;stroke-width:3.38711;stroke-linecap:round;stroke-linejoin:round;stroke-dasharray:none;stroke-dashoffset:0;stroke-opacity:1"
             id="rect57"
             width="15"
             height="15"
             x="633.7215"
             y="221.24361"
             ry="0" /><rect
             style="fill:#edf1ff;fill-opacity:1;stroke:none;stroke-width:3.38711;stroke-linecap:round;stroke-linejoin:round;stroke-dasharray:none;stroke-dashoffset:0;stroke-opacity:1"
             id="rect58"
             width="15"
             height="15"
             x="653.7215"
             y="221.24361"
             ry="0" /><rect
             style="fill:#edf1ff;fill-opacity:1;stroke:none;stroke-width:3.38711;stroke-linecap:round;stroke-linejoin:round;stroke-dasharray:none;stroke-dashoffset:0;stroke-opacity:1"
             id="rect59"
             width="15"
             height="15"
             x="573.7215"
             y="241.24361"
             ry="0" /><rect
             style="fill:#edf1ff;fill-opacity:1;stroke:none;stroke-width:3.38711;stroke-linecap:round;stroke-linejoin:round;stroke-dasharray:none;stroke-dashoffset:0;stroke-opacity:1"
             id="rect60"
             width="15"
             height="15"
             x="593.7215"
             y="241.24361"
             ry="0" /><rect
             style="fill:#edf1ff;fill-opacity:1;stroke:none;stroke-width:3.38711;stroke-linecap:round;stroke-linejoin:round;stroke-dasharray:none;stroke-dashoffset:0;stroke-opacity:1"
             id="rect61"
             width="15"
             height="15"
             x="613.7215"
             y="241.24361"
             ry="0" /><rect
             style="fill:#edf1ff;fill-opacity:1;stroke:none;stroke-width:3.38711;stroke-linecap:round;stroke-linejoin:round;stroke-dasharray:none;stroke-dashoffset:0;stroke-opacity:1"
             id="rect62"
             width="15"
             height="15"
             x="633.7215"
             y="241.24361"
             ry="0" /><rect
             style="fill:#edf1ff;fill-opacity:1;stroke:none;stroke-width:3.38711;stroke-linecap:round;stroke-linejoin:round;stroke-dasharray:none;stroke-dashoffset:0;stroke-opacity:1"
             id="rect63"
             width="15"
             height="15"
             x="653.7215"
             y="241.24361"
             ry="0" /><ellipse
             style="fill:#3a61e8;fill-opacity:1;stroke:none;stroke-width:3.40094;stroke-linecap:round;stroke-linejoin:round;stroke-dasharray:none;stroke-dashoffset:0;stroke-opacity:1"
             id="ellipse63"
             cx="690.49713"
             cy="248.74361"
             rx="4.7756624"
             ry="4.9936676" /></g><g
           id="g66"
           transform="translate(334.45628,133.04693)"><rect
             style="fill:#dce3f8;fill-opacity:1;stroke:none;stroke-width:5;stroke-linecap:round;stroke-linejoin:round;stroke-dasharray:none;stroke-dashoffset:0;stroke-opacity:1"
             id="rect64"
             width="105"
             height="10.616199"
             x="548.87329"
             y="417.9577"
             ry="2.2798944" /><rect
             style="fill:#dce3f8;fill-opacity:1;stroke:none;stroke-width:5;stroke-linecap:round;stroke-linejoin:round;stroke-dasharray:none;stroke-dashoffset:0;stroke-opacity:1"
             id="rect65"
             width="105"
             height="10.616199"
             x="548.87329"
             y="397.20657"
             ry="2.2798944" /><rect
             style="fill:#dce3f8;fill-opacity:1;stroke:none;stroke-width:5;stroke-linecap:round;stroke-linejoin:round;stroke-dasharray:none;stroke-dashoffset:0;stroke-opacity:1"
             id="rect66"
             width="105"
             height="10.616199"
             x="548.87329"
             y="438.70883"
             ry="2.2798944" /></g><g
           id="g81"
           transform="translate(319.95426,209.64103)"><rect
             style="fill:#dce3f8;fill-opacity:1;stroke:none;stroke-width:4.70408;stroke-linecap:round;stroke-linejoin:round;stroke-dasharray:none;stroke-dashoffset:0;stroke-opacity:1"
             id="rect67"
             width="174.30762"
             height="45"
             x="528.7215"
             y="216.24361"
             ry="5" /><rect
             style="fill:#edf1ff;fill-opacity:1;stroke:none;stroke-width:3.38711;stroke-linecap:round;stroke-linejoin:round;stroke-dasharray:none;stroke-dashoffset:0;stroke-opacity:1"
             id="rect68"
             width="15"
             height="15"
             x="533.7215"
             y="241.24361"
             ry="0" /><ellipse
             style="fill:#3a61e8;fill-opacity:1;stroke:none;stroke-width:3.40094;stroke-linecap:round;stroke-linejoin:round;stroke-dasharray:none;stroke-dashoffset:0;stroke-opacity:1"
             id="ellipse68"
             cx="690.49713"
             cy="228.74361"
             rx="4.7756624"
             ry="4.9936676" /><rect
             style="fill:#edf1ff;fill-opacity:1;stroke:none;stroke-width:3.38711;stroke-linecap:round;stroke-linejoin:round;stroke-dasharray:none;stroke-dashoffset:0;stroke-opacity:1"
             id="rect69"
             width="15"
             height="15"
             x="533.7215"
             y="221.24361"
             ry="0" /><rect
             style="fill:#edf1ff;fill-opacity:1;stroke:none;stroke-width:3.38711;stroke-linecap:round;stroke-linejoin:round;stroke-dasharray:none;stroke-dashoffset:0;stroke-opacity:1"
             id="rect70"
             width="15"
             height="15"
             x="553.7215"
             y="221.24361"
             ry="0" /><rect
             style="fill:#edf1ff;fill-opacity:1;stroke:none;stroke-width:3.38711;stroke-linecap:round;stroke-linejoin:round;stroke-dasharray:none;stroke-dashoffset:0;stroke-opacity:1"
             id="rect71"
             width="15"
             height="15"
             x="553.7215"
             y="241.24361"
             ry="0" /><rect
             style="fill:#edf1ff;fill-opacity:1;stroke:none;stroke-width:3.38711;stroke-linecap:round;stroke-linejoin:round;stroke-dasharray:none;stroke-dashoffset:0;stroke-opacity:1"
             id="rect72"
             width="15"
             height="15"
             x="573.7215"
             y="221.24361"
             ry="0" /><rect
             style="fill:#edf1ff;fill-opacity:1;stroke:none;stroke-width:3.38711;stroke-linecap:round;stroke-linejoin:round;stroke-dasharray:none;stroke-dashoffset:0;stroke-opacity:1"
             id="rect73"
             width="15"
             height="15"
             x="593.7215"
             y="221.24361"
             ry="0" /><rect
             style="fill:#edf1ff;fill-opacity:1;stroke:none;stroke-width:3.38711;stroke-linecap:round;stroke-linejoin:round;stroke-dasharray:none;stroke-dashoffset:0;stroke-opacity:1"
             id="rect74"
             width="15"
             height="15"
             x="613.7215"
             y="221.24361"
             ry="0" /><rect
             style="fill:#edf1ff;fill-opacity:1;stroke:none;stroke-width:3.38711;stroke-linecap:round;stroke-linejoin:round;stroke-dasharray:none;stroke-dashoffset:0;stroke-opacity:1"
             id="rect75"
             width="15"
             height="15"
             x="633.7215"
             y="221.24361"
             ry="0" /><rect
             style="fill:#edf1ff;fill-opacity:1;stroke:none;stroke-width:3.38711;stroke-linecap:round;stroke-linejoin:round;stroke-dasharray:none;stroke-dashoffset:0;stroke-opacity:1"
             id="rect76"
             width="15"
             height="15"
             x="653.7215"
             y="221.24361"
             ry="0" /><rect
             style="fill:#edf1ff;fill-opacity:1;stroke:none;stroke-width:3.38711;stroke-linecap:round;stroke-linejoin:round;stroke-dasharray:none;stroke-dashoffset:0;stroke-opacity:1"
             id="rect77"
             width="15"
             height="15"
             x="573.7215"
             y="241.24361"
             ry="0" /><rect
             style="fill:#edf1ff;fill-opacity:1;stroke:none;stroke-width:3.38711;stroke-linecap:round;stroke-linejoin:round;stroke-dasharray:none;stroke-dashoffset:0;stroke-opacity:1"
             id="rect78"
             width="15"
             height="15"
             x="593.7215"
             y="241.24361"
             ry="0" /><rect
             style="fill:#edf1ff;fill-opacity:1;stroke:none;stroke-width:3.38711;stroke-linecap:round;stroke-linejoin:round;stroke-dasharray:none;stroke-dashoffset:0;stroke-opacity:1"
             id="rect79"
             width="15"
             height="15"
             x="613.7215"
             y="241.24361"
             ry="0" /><rect
             style="fill:#edf1ff;fill-opacity:1;stroke:none;stroke-width:3.38711;stroke-linecap:round;stroke-linejoin:round;stroke-dasharray:none;stroke-dashoffset:0;stroke-opacity:1"
             id="rect80"
             width="15"
             height="15"
             x="633.7215"
             y="241.24361"
             ry="0" /><rect
             style="fill:#edf1ff;fill-opacity:1;stroke:none;stroke-width:3.38711;stroke-linecap:round;stroke-linejoin:round;stroke-dasharray:none;stroke-dashoffset:0;stroke-opacity:1"
             id="rect81"
             width="15"
             height="15"
             x="653.7215"
             y="241.24361"
             ry="0" /><ellipse
             style="fill:#3a61e8;fill-opacity:1;stroke:none;stroke-width:3.40094;stroke-linecap:round;stroke-linejoin:round;stroke-dasharray:none;stroke-dashoffset:0;stroke-opacity:1"
             id="ellipse81"
             cx="690.49713"
             cy="248.74361"
             rx="4.7756624"
             ry="4.9936676" /></g></g><path
         d="m 480.24176,613.23099 q 0,-1.10286 -0.77474,-1.74088 -0.77474,-0.64714 -2.83464,-1.22136 -2.0599,-0.58334 -3.00782,-1.26693 -1.34896,-0.96615 -1.34896,-2.53386 0,-1.52214 1.2487,-2.47006 1.25782,-0.95703 3.20834,-0.95703 1.32162,0 2.36068,0.51042 1.04818,0.51042 1.6224,1.42188 0.57422,0.91146 0.57422,2.03255 h -1.13021 q 0,-1.35807 -0.92969,-2.17839 -0.92969,-0.82943 -2.4974,-0.82943 -1.52214,0 -2.42448,0.6836 -0.90235,0.67448 -0.90235,1.76823 0,1.01172 0.8112,1.64974 0.8112,0.63803 2.59766,1.13022 1.78646,0.48307 2.70704,1.01172 0.92057,0.51953 1.38542,1.2487 0.46484,0.72916 0.46484,1.72266 0,1.56771 -1.25781,2.51562 -1.2487,0.94792 -3.29949,0.94792 -1.40365,0 -2.57943,-0.5013 -1.16667,-0.5013 -1.77735,-1.40365 -0.60156,-0.90234 -0.60156,-2.06901 h 1.1211 q 0,1.40365 1.04818,2.21485 1.04817,0.81119 2.78906,0.81119 1.54949,0 2.48829,-0.68359 0.9388,-0.6836 0.9388,-1.81381 z m 7.10939,3.44532 q -1.25781,0 -2.27865,-0.61979 -1.01172,-0.61979 -1.57683,-1.72266 -0.5651,-1.11198 -0.5651,-2.48828 v -0.39193 q 0,-1.42188 0.54688,-2.56121 0.55599,-1.13932 1.54036,-1.78646 0.98438,-0.65625 2.13282,-0.65625 1.79558,0 2.84375,1.23047 1.0573,1.22136 1.0573,3.34506 v 0.61068 h -7.03647 v 0.20964 q 0,1.67708 0.95703,2.79818 0.96615,1.11198 2.42448,1.11198 0.875,0 1.54037,-0.31901 0.67448,-0.31901 1.22136,-1.02084 l 0.68359,0.51953 q -1.20313,1.74089 -3.49089,1.74089 z m -0.20052,-9.29689 q -1.23047,0 -2.07813,0.90235 -0.83854,0.90234 -1.02083,2.42448 h 5.91537 v -0.11849 q -0.0456,-1.42188 -0.8112,-2.31511 -0.76563,-0.89323 -2.00521,-0.89323 z m 10.58205,0.18229 q -0.34635,-0.0638 -0.73828,-0.0638 -1.02084,0 -1.73178,0.57422 -0.70182,0.56511 -1.0026,1.64974 v 6.77215 h -1.08464 v -9.862 h 1.06641 l 0.0182,1.56772 q 0.86588,-1.75001 2.77995,-1.75001 0.45573,0 0.72005,0.11849 z m 4.95834,7.4284 2.99871,-8.35809 h 1.12109 l -3.6823,9.862 h -0.88411 l -3.70053,-9.862 h 1.12109 z m 9.60679,1.6862 q -1.25781,0 -2.27865,-0.61979 -1.01172,-0.61979 -1.57682,-1.72266 -0.56511,-1.11198 -0.56511,-2.48828 v -0.39193 q 0,-1.42188 0.54688,-2.56121 0.55599,-1.13932 1.54036,-1.78646 0.98438,-0.65625 2.13282,-0.65625 1.79558,0 2.84376,1.23047 1.05729,1.22136 1.05729,3.34506 v 0.61068 h -7.03647 v 0.20964 q 0,1.67708 0.95703,2.79818 0.96615,1.11198 2.42448,1.11198 0.87501,0 1.54037,-0.31901 0.67448,-0.31901 1.22136,-1.02084 l 0.68359,0.51953 q -1.20312,1.74089 -3.49089,1.74089 z m -0.20052,-9.29689 q -1.23047,0 -2.07813,0.90235 -0.83854,0.90234 -1.02083,2.42448 h 5.91537 v -0.11849 q -0.0456,-1.42188 -0.8112,-2.31511 -0.76562,-0.89323 -2.00521,-0.89323 z m 10.58205,0.18229 q -0.34636,-0.0638 -0.73828,-0.0638 -1.02084,0 -1.73178,0.57422 -0.70182,0.56511 -1.0026,1.64974 v 6.77215 h -1.08464 v -9.862 h 1.06641 l 0.0182,1.56772 q 0.86588,-1.75001 2.77995,-1.75001 0.45573,0 0.72005,0.11849 z"
         id="text17"
         style="font-weight:300;font-size:18.6667px;font-family:Roboto;-inkscape-font-specification:'Roboto Light';text-align:center;text-anchor:middle;fill:#3a61e8;stroke-width:5;stroke-linecap:round;stroke-linejoin:round"
          /></g><g
       id="g93"
       transform="translate(17.062083,1.477652)"><g
         id="g92"
         transform="matrix(0.2307827,0,0,0.2307827,562.54481,407.9954)"><rect
           style="fill:#ff9900;fill-opacity:1;fill-rule:nonzero;stroke:none;stroke-width:3.41931;stroke-linecap:round;stroke-linejoin:round;stroke-dasharray:3.41931, 6.83861"
           id="rect83"
           width="646.12836"
           height="650.13623"
           x="872.33777"
           y="114.3964"
           ry="153.95499" /><circle
           style="fill:#ffffff;fill-opacity:1;fill-rule:nonzero;stroke:none;stroke-width:1.04593;stroke-linecap:round;stroke-linejoin:round;stroke-dasharray:1.04593, 2.09185"
           id="circle83"
           cx="-1195.402"
           cy="-439.46448"
           r="292.00897"
           transform="scale(-1)" /><g
           id="g87"
           transform="translate(-457.02135,25.108675)"><path
             d="m 1633.2202,430.66603 h 35.5117 v -254.9824 l -17.7558,-26.6309 -17.7559,26.6309 z"
             style="fill:#2c5eff;fill-opacity:1;stroke-linecap:round;stroke-linejoin:round;stroke-dasharray:0.999999, 2"
             id="path83" /><path
             d="m 1836.4608,225.83204 -31.3848,6.27735 -138.6172,138.61523 -24.4297,24.42969 h 24.4297 25.793 l 137.9336,-137.93555 z"
             style="fill:#eb3e3e;stroke-linecap:round;stroke-linejoin:round;stroke-dasharray:0.999999, 2"
             id="path84" /><path
             d="m 1633.2202,395.15431 v 35.51172 h 254.9824 l 26.6309,-17.75586 -26.6309,-17.75586 z"
             style="fill:#ffd31a;fill-opacity:1;stroke-linecap:round;stroke-linejoin:round;stroke-dasharray:0.999999, 2"
             id="path85" /><path
             d="m 1461.9399,333.44119 -82.5004,-82.50047 -6.2755,31.38672 -137.9335,137.93555 h 195.9508 l 26.6309,17.75586 -26.6309,17.75586 h -254.9824 l 204.6664,204.67205 c 65.0846,-55.21535 106.1988,-135.63364 106.544,-220.9836 z"
             style="opacity:1;fill:url(#linearGradient11);stroke-linecap:round;stroke-linejoin:round;stroke-dasharray:0.999999, 2"
             id="path86"
             transform="translate(457.02135,-25.108675)" /><path
             style="opacity:1;fill:url(#linearGradient12);fill-opacity:1;fill-rule:nonzero;stroke:none;stroke-linecap:round;stroke-linejoin:round;stroke-dasharray:0.999999, 2"
             d="m 1193.9548,174.1614 118.5,118.65597 -100.7442,100.74286 V 200.79231 Z"
             id="path87"
             transform="translate(457.02135,-25.108675)" /></g><g
           id="g91"><rect
             style="fill:#868686;fill-opacity:1;fill-rule:nonzero;stroke:none;stroke-linecap:round;stroke-linejoin:round;stroke-dasharray:0.999999, 2"
             id="rect87"
             width="17.060371"
             height="43.350124"
             x="525.99823"
             y="1378.7231"
             transform="rotate(-45)" /><rect
             style="fill:#868686;fill-opacity:1;fill-rule:nonzero;stroke:none;stroke-linecap:round;stroke-linejoin:round;stroke-dasharray:0.999999, 2"
             id="rect88"
             width="17.060371"
             height="43.350124"
             x="1186.8717"
             y="662.16254" /><rect
             style="fill:#868686;fill-opacity:1;fill-rule:nonzero;stroke:none;stroke-linecap:round;stroke-linejoin:round;stroke-dasharray:0.999999, 2"
             id="rect89"
             width="17.060371"
             height="43.350124"
             x="1147.4949"
             y="-311.83044"
             transform="rotate(45)" /><rect
             style="fill:#868686;fill-opacity:1;fill-rule:nonzero;stroke:none;stroke-linecap:round;stroke-linejoin:round;stroke-dasharray:0.999999, 2"
             id="rect90"
             width="17.060371"
             height="43.350124"
             x="430.9342"
             y="-972.70392"
             transform="rotate(90)" /><rect
             style="fill:#868686;fill-opacity:1;fill-rule:nonzero;stroke:none;stroke-linecap:round;stroke-linejoin:round;stroke-dasharray:0.999999, 2"
             id="rect91"
             width="17.060371"
             height="43.350124"
             x="-543.05884"
             y="-933.32709"
             transform="rotate(135)" /></g></g><path
         d="m 805.95754,613.94036 0.41015,2.0599 0.50131,-1.96875 2.88021,-9.77997 h 1.01172 l 2.84376,9.77997 0.49219,1.98698 0.4375,-2.07813 2.39714,-9.68882 h 1.14844 l -3.39975,13.27086 h -1.07552 l -3.00782,-10.38153 -0.33724,-1.3125 -0.32813,1.3125 -3.08073,10.38153 h -1.07552 l -3.39064,-13.27086 h 1.14844 z m 17.56383,3.76433 q -1.25781,0 -2.27865,-0.61979 -1.01172,-0.61979 -1.57682,-1.72266 -0.56511,-1.11198 -0.56511,-2.48829 v -0.39192 q 0,-1.42188 0.54688,-2.56121 0.55599,-1.13932 1.54036,-1.78646 0.98438,-0.65625 2.13282,-0.65625 1.79558,0 2.84376,1.23047 1.05729,1.22136 1.05729,3.34506 v 0.61068 h -7.03647 v 0.20963 q 0,1.67709 0.95703,2.79819 0.96615,1.11198 2.42448,1.11198 0.87501,0 1.54037,-0.31901 0.67448,-0.31901 1.22136,-1.02084 l 0.68359,0.51953 q -1.20312,1.74089 -3.49089,1.74089 z m -0.20052,-9.29689 q -1.23047,0 -2.07813,0.90235 -0.83854,0.90234 -1.02083,2.42448 h 5.91537 v -0.11849 q -0.0456,-1.42188 -0.8112,-2.31511 -0.76562,-0.89323 -2.00521,-0.89323 z m 13.96357,4.28386 q 0,2.306 -1.02084,3.66407 -1.02083,1.34896 -2.74349,1.34896 -2.0599,0 -3.11719,-1.53125 l -0.0456,1.34896 h -1.02083 v -14.00003 h 1.08463 v 5.56903 q 1.03907,-1.61329 3.08074,-1.61329 1.75,0 2.76172,1.33985 1.02084,1.33073 1.02084,3.70964 z m -1.09375,-0.1914 q 0,-1.95053 -0.75652,-3.00782 -0.75651,-1.06641 -2.13281,-1.06641 -1.04818,0 -1.77735,0.51953 -0.72917,0.51042 -1.10287,1.50391 v 4.44793 q 0.82032,1.85937 2.89845,1.85937 1.34896,0 2.10547,-1.0664 0.76563,-1.06641 0.76563,-3.19011 z m 12.89715,-8.24872 v 9.05991 q -0.009,1.33985 -0.59245,2.33334 -0.58333,0.99349 -1.64974,1.53126 -1.05729,0.52864 -2.4336,0.52864 -2.09635,0 -3.36328,-1.13932 -1.25782,-1.14844 -1.30339,-3.17188 v -9.14195 h 1.11198 v 8.97788 q 0,1.67709 0.95703,2.60678 0.95704,0.92057 2.59766,0.92057 1.64063,0 2.58855,-0.92969 0.95703,-0.92968 0.95703,-2.58854 v -8.987 z m 3.91017,3.40886 0.0365,1.6862 q 0.55599,-0.91146 1.38542,-1.38542 0.82943,-0.48307 1.83204,-0.48307 1.58594,0 2.36068,0.89323 0.77474,0.89323 0.78385,2.67969 v 6.47137 h -1.08463 v -6.48048 q -0.009,-1.32162 -0.56511,-1.96875 -0.54687,-0.64714 -1.75912,-0.64714 -1.01172,0 -1.79557,0.63802 -0.77474,0.62891 -1.14844,1.70443 v 6.75392 h -1.08464 v -9.862 z m 10.91017,-2.52474 v 2.52474 h 2.04167 v 0.89323 h -2.04167 v 6.57163 q 0,0.82031 0.29167,1.22136 0.30078,0.40104 0.99349,0.40104 0.27344,0 0.88412,-0.0911 l 0.0456,0.89323 q -0.42839,0.15495 -1.16667,0.15495 -1.12109,0 -1.63151,-0.64713 -0.51042,-0.65626 -0.51042,-1.92319 v -6.58074 h -1.81381 v -0.89323 h 1.81381 v -2.52474 z m 5.52345,12.38674 h -1.09375 v -9.862 h 1.09375 z m -1.28516,-12.71487 q 0,-0.30989 0.20053,-0.51953 0.20052,-0.21875 0.54687,-0.21875 0.34636,0 0.54688,0.21875 0.20963,0.20964 0.20963,0.51953 0,0.3099 -0.20963,0.51954 -0.20052,0.20963 -0.54688,0.20963 -0.34635,0 -0.54687,-0.20963 -0.20053,-0.20964 -0.20053,-0.51954 z m 10.15367,10.20835 q 0,-0.81119 -0.65625,-1.30338 -0.64714,-0.49219 -1.95964,-0.76563 -1.3125,-0.28255 -2.04167,-0.63802 -0.72006,-0.36459 -1.07552,-0.88412 -0.34636,-0.51953 -0.34636,-1.25781 0,-1.16667 0.97526,-1.92318 0.97526,-0.76563 2.4974,-0.76563 1.64975,0 2.64324,0.82031 1.0026,0.8112 1.0026,2.12371 h -1.09375 q 0,-0.86589 -0.72917,-1.44011 -0.72005,-0.57422 -1.82292,-0.57422 -1.07552,0 -1.73177,0.48307 -0.64714,0.47396 -0.64714,1.23959 0,0.73828 0.53776,1.14844 0.54688,0.40104 1.97787,0.73828 1.44011,0.33724 2.15105,0.72006 0.72005,0.38281 1.06641,0.92057 0.34635,0.53776 0.34635,1.30339 0,1.2487 -1.01172,1.99609 -1.00261,0.7474 -2.62501,0.7474 -1.72265,0 -2.79818,-0.82943 -1.06641,-0.83854 -1.06641,-2.11458 h 1.09376 q 0.0638,0.95703 0.80208,1.49479 0.7474,0.52865 1.96875,0.52865 1.13933,0 1.84115,-0.50131 0.70183,-0.5013 0.70183,-1.26693 z"
         id="text18"
         style="font-weight:300;font-size:18.6667px;font-family:Roboto;-inkscape-font-specification:'Roboto Light';text-align:center;text-anchor:middle;fill:#3a61e8;stroke-width:5;stroke-linecap:round;stroke-linejoin:round"
          /></g><g
       id="g104"
       transform="translate(50.09944,-1.6703373)"><g
         id="g103"
         transform="matrix(1.2189735,0,0,1.2189735,-44.318503,-45.427346)"><g
           id="g100"><path
             d="m 226.98574,486.91039 c -0.81142,0 -1.46448,0.65306 -1.46448,1.46447 0,0.81142 0.65306,1.46448 1.46448,1.46448 h 30.89657 c 0.81142,0 1.46448,-0.65306 1.46448,-1.46448 0,-0.81141 -0.65306,-1.46447 -1.46448,-1.46447 z"
             style="opacity:1;fill:#dce3f8;stroke-width:3.67134;stroke-linecap:round;stroke-linejoin:round"
             id="path93" /><path
             d="m 266.17086,412.9544 a 1.6350902,1.6350902 0 0 0 -1.63592,1.63592 1.6350902,1.6350902 0 0 0 1.63592,1.63431 1.6350902,1.6350902 0 0 0 1.63431,-1.63431 1.6350902,1.6350902 0 0 0 -1.63431,-1.63592 z"
             style="opacity:1;fill:#3a61e8;stroke-width:3.27025;stroke-linecap:round;stroke-linejoin:round"
             id="path94" /><path
             d="m 255.52217,412.9544 c -0.90584,0 -1.63592,0.73008 -1.63592,1.63592 0,0.90584 0.73008,1.63431 1.63592,1.63431 h 3.15968 c 0.90584,0 1.63431,-0.72847 1.63431,-1.63431 0,-0.90584 -0.72847,-1.63592 -1.63431,-1.63592 z"
             style="opacity:1;fill:#dce3f8;stroke-width:5;stroke-linecap:round;stroke-linejoin:round"
             id="path95" /><path
             d="m 247.10384,412.9544 c -0.90584,0 -1.63431,0.73008 -1.63431,1.63592 0,0.90584 0.72847,1.63431 1.63431,1.63431 h 3.15968 c 0.90584,0 1.63592,-0.72847 1.63592,-1.63431 0,-0.90584 -0.73008,-1.63592 -1.63592,-1.63592 z"
             style="opacity:1;fill:#dce3f8;stroke-width:5;stroke-linecap:round;stroke-linejoin:round"
             id="path96" /><path
             d="m 236.18757,481.5556 v 2.05892 c 0,0.30457 -0.057,0.59291 -0.13939,0.87003 h 21.83413 c 0.81142,0 1.46448,-0.65306 1.46448,-1.46447 0,-0.81142 -0.65306,-1.46448 -1.46448,-1.46448 z"
             style="opacity:1;fill:#dce3f8;stroke-width:3.67134;stroke-linecap:round;stroke-linejoin:round"
             id="path97" /><path
             d="m 236.18757,476.19921 v 2.93056 h 21.69474 c 0.81142,0 1.46448,-0.65307 1.46448,-1.46448 0,-0.81141 -0.65306,-1.46608 -1.46448,-1.46608 z"
             style="opacity:1;fill:#dce3f8;stroke-width:3.67134;stroke-linecap:round;stroke-linejoin:round"
             id="path98" /><path
             d="m 236.18757,425.7966 v 8.44717 H 255.402 c 1.34607,0 2.42904,-1.08297 2.42904,-2.42905 v -3.58748 c 0,-1.34607 -1.08297,-2.43064 -2.42904,-2.43064 z"
             style="opacity:1;fill:#dce3f8;stroke-width:4.47047;stroke-linecap:round;stroke-linejoin:round"
             id="path99" /><path
             d="M 236.18757,410.21452 V 425.7966 H 255.402 c 1.34607,0 2.42904,1.08457 2.42904,2.43064 v 3.58748 c 0,1.34608 -1.08297,2.42905 -2.42904,2.42905 h -19.21443 v 41.95544 h 21.69474 c 0.81142,0 1.46448,0.65467 1.46448,1.46608 0,0.81141 -0.65306,1.46448 -1.46448,1.46448 h -21.69474 v 2.42583 h 21.69474 c 0.81142,0 1.46448,0.65306 1.46448,1.46448 0,0.81141 -0.65306,1.46447 -1.46448,1.46447 h -21.83413 c -0.37451,1.25979 -1.52513,2.17909 -2.90973,2.17909 H 213.79264 V 506.535 c 0,2.28797 1.84268,4.12905 4.13066,4.12905 h 49.02145 c 2.28798,0 4.13066,-1.84108 4.13066,-4.12905 v -92.18983 c 0,-2.28797 -1.84268,-4.13065 -4.13066,-4.13065 z m 10.91627,2.73988 h 3.15968 c 0.90584,0 1.63592,0.73008 1.63592,1.63592 0,0.90584 -0.73008,1.63431 -1.63592,1.63431 h -3.15968 c -0.90584,0 -1.63431,-0.72847 -1.63431,-1.63431 0,-0.90584 0.72847,-1.63592 1.63431,-1.63592 z m 8.41833,0 h 3.15968 c 0.90584,0 1.63431,0.73008 1.63431,1.63592 0,0.90584 -0.72847,1.63431 -1.63431,1.63431 h -3.15968 c -0.90584,0 -1.63592,-0.72847 -1.63592,-1.63431 0,-0.90584 0.73008,-1.63592 1.63592,-1.63592 z m 10.64869,0 a 1.6350902,1.6350902 0 0 1 1.63431,1.63592 1.6350902,1.6350902 0 0 1 -1.63431,1.63431 1.6350902,1.6350902 0 0 1 -1.63592,-1.63431 1.6350902,1.6350902 0 0 1 1.63592,-1.63592 z m -39.18512,73.95599 h 30.89657 c 0.81142,0 1.46448,0.65306 1.46448,1.46447 0,0.81142 -0.65306,1.46448 -1.46448,1.46448 h -30.89657 c -0.81142,0 -1.46448,-0.65306 -1.46448,-1.46448 0,-0.81141 0.65306,-1.46447 1.46448,-1.46447 z"
             style="fill:#edf1ff;stroke-width:3.96975;stroke-linecap:round;stroke-linejoin:round"
             id="path100" /></g><g
           id="g102"><rect
             style="fill:#dce3f8;fill-opacity:1;stroke:none;stroke-width:3.11932;stroke-linecap:round;stroke-linejoin:round;stroke-dasharray:none;stroke-dashoffset:0;stroke-opacity:1;paint-order:normal"
             id="rect100"
             width="160"
             height="90"
             x="73.187653"
             y="393.66455"
             ry="2.8584995" /><rect
             style="fill:#edf1ff;fill-opacity:1;stroke:none;stroke-width:2.84753;stroke-linecap:round;stroke-linejoin:round;stroke-dasharray:none;stroke-dashoffset:0;stroke-opacity:1;paint-order:normal"
             id="screen"
             width="150"
             height="80"
             x="78.187653"
             y="398.66455"
             ry="2.4369478" /><rect
             style="fill:#edf1ff;fill-opacity:1;stroke:none;stroke-width:5;stroke-linecap:round;stroke-linejoin:round;stroke-dasharray:none;stroke-dashoffset:0;stroke-opacity:1;paint-order:normal"
             id="rect102"
             width="10.998222"
             height="25.942368"
             x="147.68854"
             y="483.66455" /><path
             style="fill:#dce3f8;fill-opacity:1;stroke:none;stroke-width:5;stroke-linecap:round;stroke-linejoin:round;stroke-dasharray:none;stroke-dashoffset:0;stroke-opacity:1;paint-order:normal"
             id="path102"
             width="47.087112"
             height="10.473358"
             x="129.64409"
             y="499.60693"
             d="m 133.5302,499.60693 h 38.20327 a 4.9977287,4.9977287 45 0 1 4.99773,4.99773 v 5.47563 h -47.08711 v -6.58724 a 3.8861162,3.8861162 135 0 1 3.88611,-3.88612 z"
             transform="translate(0,0.5842514)" /></g><text
           xml:space="preserve"
           style="font-style:normal;font-variant:normal;font-weight:normal;font-stretch:normal;font-size:15.3135px;font-family:Roboto;-inkscape-font-specification:Roboto;text-align:center;text-anchor:middle;opacity:1;fill:#edf1ff;fill-opacity:1;fill-rule:nonzero;stroke:none;stroke-width:4.10181;stroke-linecap:round;stroke-linejoin:round;stroke-opacity:1"
           x="153.1727"
           y="444.41086"
           id="shutdown"><tspan
             id="tspan19"
             x="153.1727"
             y="444.41086"
             style="font-style:normal;font-variant:normal;font-weight:normal;font-stretch:normal;font-size:15.3135px;font-family:Roboto;-inkscape-font-specification:'Roboto, Normal';font-variant-ligatures:normal;font-variant-caps:normal;font-variant-numeric:normal;font-variant-east-asian:normal;fill:#edf1ff;fill-opacity:1;stroke-width:4.10181">Herunterfahren</tspan></text></g><path
         d="m 135.29907,612.92303 q -0.22786,2.09635 -1.5039,3.20834 -1.26693,1.11198 -3.38152,1.11198 -1.47657,0 -2.61589,-0.73829 -1.13021,-0.73828 -1.75,-2.08724 -0.6198,-1.35807 -0.62891,-3.09896 v -1.72266 q 0,-1.76823 0.61979,-3.13542 0.61979,-1.36719 1.77735,-2.10548 1.16667,-0.74739 2.67969,-0.74739 2.13282,0 3.36329,1.15755 1.23958,1.14844 1.4401,3.181 h -1.13021 q -0.41927,-3.38152 -3.67318,-3.38152 -1.80469,0 -2.88021,1.34896 -1.06641,1.34896 -1.06641,3.72787 v 1.6224 q 0,2.29688 1.03906,3.66407 1.04818,1.36719 2.82553,1.36719 1.75912,0 2.65235,-0.83854 0.89323,-0.84766 1.10286,-2.53386 z m 1.8685,-0.93881 q 0,-1.42187 0.54687,-2.5612 0.55599,-1.13932 1.5586,-1.76823 1.01172,-0.63802 2.28776,-0.63802 1.96876,0 3.19011,1.38542 1.22136,1.3763 1.22136,3.65495 v 0.22786 q 0,1.431 -0.55599,2.57944 -0.54688,1.13932 -1.54948,1.75911 -1.00261,0.6198 -2.28777,0.6198 -1.95964,0 -3.19011,-1.37631 -1.22135,-1.38542 -1.22135,-3.66407 z m 1.09375,0.30078 q 0,1.76824 0.91146,2.90756 0.92057,1.13021 2.40625,1.13021 1.47657,0 2.38803,-1.13021 0.92057,-1.13932 0.92057,-2.9987 v -0.20964 q 0,-1.13021 -0.41927,-2.06901 -0.41927,-0.93881 -1.17578,-1.44922 -0.75651,-0.51953 -1.73178,-0.51953 -1.45833,0 -2.37891,1.14843 -0.92057,1.13933 -0.92057,2.98959 z m 10.95575,-5.08594 0.0365,1.60417 q 0.54687,-0.89323 1.36719,-1.33985 0.82031,-0.44661 1.82292,-0.44661 2.33333,0 2.96224,1.91406 0.52865,-0.92057 1.41276,-1.41276 0.88412,-0.5013 1.95053,-0.5013 3.17188,0 3.23568,3.46354 v 6.58074 h -1.09375 v -6.4987 q -0.009,-1.32162 -0.57422,-1.95964 -0.55599,-0.63803 -1.82292,-0.63803 -1.17578,0.0182 -1.98698,0.76563 -0.8112,0.73828 -0.90235,1.80469 v 6.52605 h -1.09375 v -6.58074 q -0.009,-1.26693 -0.60156,-1.88672 -0.58334,-0.62891 -1.8047,-0.62891 -1.02995,0 -1.76823,0.59245 -0.73828,0.58334 -1.09375,1.74089 v 6.76303 h -1.09375 v -9.86199 z m 23.47921,5.03126 q 0,2.30599 -1.02084,3.66407 -1.02083,1.34896 -2.73438,1.34896 -2.02344,0 -3.09896,-1.42188 v 5.03126 h -1.08464 v -13.65367 h 1.01172 l 0.0547,1.39453 q 1.06641,-1.57682 3.08985,-1.57682 1.76823,0 2.77084,1.33984 1.01172,1.33985 1.01172,3.71876 z m -1.09376,-0.19141 q 0,-1.88672 -0.77474,-2.98047 -0.77474,-1.09376 -2.16016,-1.09376 -1.0026,0 -1.72266,0.48308 -0.72005,0.48307 -1.10286,1.40365 v 4.73047 q 0.39193,0.84766 1.12109,1.29428 0.72917,0.44661 1.72266,0.44661 1.37631,0 2.14193,-1.09375 0.77474,-1.10287 0.77474,-3.19011 z m 9.85289,3.77344 q -0.98438,1.431 -3.14454,1.431 -1.57682,0 -2.39714,-0.91146 -0.82031,-0.92058 -0.83854,-2.71615 v -6.41668 h 1.08464 v 6.27996 q 0,2.81641 2.27865,2.81641 2.36979,0 2.9987,-1.95964 v -7.13673 h 1.09375 v 9.86199 h -1.05729 z m 5.60548,-11.13804 v 2.52475 h 2.04167 v 0.89323 h -2.04167 v 6.57163 q 0,0.82031 0.29166,1.22135 0.30078,0.40104 0.99349,0.40104 0.27344,0 0.88412,-0.0911 l 0.0456,0.89323 q -0.42838,0.15495 -1.16667,0.15495 -1.12109,0 -1.63151,-0.64714 -0.51042,-0.65625 -0.51042,-1.92318 v -6.58074 h -1.8138 v -0.89323 h 1.8138 v -2.52475 z m 8.1211,12.56904 q -1.25781,0 -2.27865,-0.6198 -1.01172,-0.61979 -1.57682,-1.72266 -0.56511,-1.11198 -0.56511,-2.48828 v -0.39193 q 0,-1.42188 0.54688,-2.5612 0.55599,-1.13933 1.54037,-1.78646 0.98437,-0.65625 2.13281,-0.65625 1.79558,0 2.84376,1.23047 1.05729,1.22135 1.05729,3.34506 v 0.61067 h -7.03647 v 0.20964 q 0,1.67709 0.95703,2.79818 0.96615,1.11198 2.42449,1.11198 0.875,0 1.54036,-0.31901 0.67448,-0.31901 1.22136,-1.02083 l 0.6836,0.51953 q -1.20313,1.74089 -3.4909,1.74089 z m -0.20052,-9.29689 q -1.23047,0 -2.07813,0.90234 -0.83854,0.90235 -1.02083,2.42448 h 5.91537 v -0.11849 q -0.0456,-1.42187 -0.8112,-2.3151 -0.76562,-0.89323 -2.00521,-0.89323 z m 10.58206,0.18229 q -0.34636,-0.0638 -0.73829,-0.0638 -1.02083,0 -1.73177,0.57422 -0.70183,0.56511 -1.00261,1.64975 v 6.77214 h -1.08463 v -9.86199 h 1.0664 l 0.0182,1.56771 q 0.86589,-1.75 2.77996,-1.75 0.45573,0 0.72005,0.11849 z"
         id="text16"
         style="font-weight:300;font-size:18.6667px;font-family:Roboto;-inkscape-font-specification:'Roboto Light';text-align:center;text-anchor:middle;fill:#3a61e8;stroke-width:5;stroke-linecap:round;stroke-linejoin:round"
          /></g></g></svg>
