<svg width="102" height="124" viewBox="0 0 102 124" fill="none" xmlns="http://www.w3.org/2000/svg">
<path d="M5.79747 97.1031L4.33774 111.247L2.46294 111.053L3.92266 96.9096L5.79747 97.1031ZM14.3361 97.9843L7.77838 103.974L4.1217 107.062L4.01738 105.029L6.78689 102.546L12.0824 97.7517L14.3361 97.9843ZM11.0696 111.941L6.54552 104.504L7.81603 103.133L13.3038 112.172L11.0696 111.941ZM18.1756 97.5952L16.6357 112.516L14.8289 112.329L16.3688 97.4087L18.1756 97.5952ZM22.5581 102.505L21.4733 113.015L19.6665 112.829L20.7512 102.318L22.5581 102.505ZM20.903 99.5162C20.9331 99.2248 21.0459 98.9877 21.2415 98.805C21.4435 98.6229 21.7194 98.55 22.0691 98.5861C22.4123 98.6215 22.6642 98.7489 22.8248 98.9684C22.9919 99.1885 23.0604 99.4443 23.0304 99.7357C23.0016 100.014 22.883 100.244 22.6745 100.426C22.4731 100.601 22.2008 100.671 21.8575 100.636C21.5078 100.6 21.2524 100.475 21.0911 100.262C20.9369 100.043 20.8742 99.7947 20.903 99.5162ZM28.6969 112.465C29.1243 112.509 29.5283 112.462 29.909 112.325C30.2897 112.187 30.6124 111.979 30.8769 111.698C31.1421 111.411 31.3113 111.072 31.3845 110.681L33.0941 110.857C32.9976 111.475 32.7273 112.033 32.2833 112.531C31.8464 113.022 31.3 113.401 30.6443 113.667C29.9891 113.927 29.2892 114.018 28.5445 113.941C27.7544 113.86 27.0791 113.649 26.5185 113.31C25.9644 112.971 25.5181 112.539 25.1797 112.013C24.8477 111.488 24.617 110.902 24.4876 110.253C24.3653 109.599 24.3406 108.919 24.4134 108.214L24.4555 107.806C24.5284 107.1 24.6911 106.442 24.9438 105.834C25.2035 105.219 25.5495 104.689 25.9817 104.242C26.4204 103.797 26.9456 103.465 27.5571 103.246C28.1752 103.029 28.8793 102.961 29.6693 103.042C30.4918 103.127 31.1933 103.37 31.7737 103.77C32.3549 104.164 32.7905 104.667 33.0808 105.279C33.3781 105.886 33.5056 106.554 33.4631 107.282L31.7534 107.106C31.7658 106.669 31.6832 106.264 31.5056 105.892C31.3345 105.521 31.0783 105.213 30.737 104.969C30.4029 104.718 29.9962 104.568 29.517 104.519C28.9665 104.462 28.4921 104.524 28.0938 104.706C27.7026 104.881 27.3778 105.142 27.1196 105.489C26.8684 105.829 26.6712 106.218 26.528 106.655C26.3919 107.086 26.3001 107.531 26.2526 107.991L26.2105 108.399C26.163 108.859 26.1616 109.317 26.2061 109.773C26.2507 110.229 26.3611 110.65 26.5374 111.034C26.7201 111.42 26.9847 111.742 27.3311 112C27.6847 112.252 28.1399 112.407 28.6969 112.465ZM38.1185 99.6534L36.5786 114.574L34.7718 114.388L36.3117 99.467L38.1185 99.6534ZM44.0843 104.726L38.993 109.159L36.1538 111.556L36.2056 109.627L38.2681 107.621L41.889 104.5L44.0843 104.726ZM41.3579 115.067L38.1256 109.668L39.2236 108.161L43.4756 115.286L41.3579 115.067Z" fill="#2C63F1"/>
<path d="M25.5119 85.812C25.4081 86.6339 25.9902 87.3844 26.8121 87.4882C27.634 87.592 28.3844 87.0099 28.4883 86.188L25.5119 85.812ZM101.184 10.3021C101.622 9.59912 101.408 8.67392 100.705 8.2356L89.249 1.09277C88.546 0.654455 87.6208 0.868997 87.1825 1.57197C86.7442 2.27494 86.9587 3.20014 87.6617 3.63846L97.8444 9.98763L91.4952 20.1704C91.0569 20.8733 91.2714 21.7985 91.9744 22.2368C92.6774 22.6752 93.6026 22.4606 94.0409 21.7577L101.184 10.3021ZM30.3133 77.2499C30.5312 76.4507 30.0599 75.6261 29.2607 75.4082C28.4614 75.1903 27.6369 75.6615 27.419 76.4608L30.3133 77.2499ZM34.2862 58.7734C33.9121 59.5126 34.2082 60.4151 34.9474 60.7891C35.6866 61.1631 36.589 60.867 36.963 60.1279L34.2862 58.7734ZM46.787 44.5885C47.295 43.9341 47.1763 42.9918 46.5219 42.4838C45.8675 41.9758 44.9252 42.0945 44.4172 42.7489L46.787 44.5885ZM57.4776 28.993C56.8496 29.5334 56.7786 30.4805 57.319 31.1084C57.8594 31.7364 58.8064 31.8074 59.4344 31.267L57.4776 28.993ZM74.5048 20.764C75.2289 20.3615 75.4896 19.4482 75.0871 18.7241C74.6846 18.0001 73.7713 17.7394 73.0473 18.1419L74.5048 20.764ZM90.4346 10.5872C89.6471 10.8443 89.217 11.6911 89.4741 12.4786C89.7311 13.2662 90.5779 13.6962 91.3655 13.4392L90.4346 10.5872ZM28.4883 86.188C28.8178 83.5793 29.4112 80.5586 30.3133 77.2499L27.419 76.4608C26.4838 79.8907 25.8608 83.0498 25.5119 85.812L28.4883 86.188ZM36.963 60.1279C39.5597 54.9957 42.8032 49.7206 46.787 44.5885L44.4172 42.7489C40.307 48.0438 36.9628 53.4834 34.2862 58.7734L36.963 60.1279ZM59.4344 31.267C63.8788 27.4424 68.8843 23.8883 74.5048 20.764L73.0473 18.1419C67.2424 21.3687 62.0703 25.0408 57.4776 28.993L59.4344 31.267ZM91.3655 13.4392C94.2078 12.5115 97.1678 11.6843 100.25 10.9697L99.572 8.04721C96.4056 8.78147 93.3611 9.63209 90.4346 10.5872L91.3655 13.4392Z" fill="#8FA9EE"/>
</svg>
